{"glyphs":{"0":{"ha":672,"x_min":43,"x_max":629,"o":"m 241 992 q 262 999 241 992 q 336 1006 283 1006 q 432 992 389 1006 q 505 955 475 979 q 557 894 535 931 q 593 816 580 857 q 615 721 607 775 q 626 614 623 666 q 629 496 629 562 q 626 379 629 431 q 615 272 623 327 q 593 177 607 218 q 557 99 580 136 q 505 38 535 62 q 432 0 475 14 q 336 -14 389 -14 q 241 0 283 -14 q 168 38 198 14 q 115 99 138 62 q 79 177 93 136 q 58 272 66 218 q 46 379 50 327 q 43 496 43 431 q 46 614 43 562 q 58 721 50 666 q 79 816 66 775 q 115 894 93 857 q 168 955 138 931 q 241 992 198 979 m 393 496 q 393 661 393 496 q 336 825 393 825 q 280 496 280 825 q 336 168 280 168 q 393 496 393 168 z "},"1":{"ha":672,"x_min":31,"x_max":506,"o":"m 506 0 l 272 0 l 272 579 l 279 722 q 161 598 203 642 l 31 740 l 302 991 l 506 991 l 506 0 z "},"2":{"ha":672,"x_min":44,"x_max":628,"o":"m 332 1005 q 537 932 467 1005 q 608 732 608 859 q 578 573 608 649 q 498 423 548 497 q 321 189 448 349 l 628 189 l 628 0 l 54 0 l 54 149 l 231 399 q 286 479 267 450 q 329 553 305 509 q 374 724 374 637 q 357 795 374 770 q 313 820 341 820 q 248 792 281 820 q 198 743 220 767 q 175 716 176 718 l 44 854 q 180 968 113 930 q 332 1005 247 1005 z "},"3":{"ha":672,"x_min":45,"x_max":627,"o":"m 321 1005 q 465 978 401 1005 q 569 895 529 951 q 608 757 608 838 q 569 615 608 676 q 455 523 529 555 q 583 441 538 500 q 627 292 627 383 q 534 68 627 149 q 289 -13 440 -13 q 46 35 138 -13 l 46 231 q 201 172 119 189 q 267 165 235 165 q 361 197 330 165 q 392 298 392 229 q 243 427 392 427 l 197 427 l 197 590 l 241 590 q 340 624 307 590 q 374 722 374 657 q 355 798 374 772 q 301 823 336 823 q 170 783 237 823 q 137 760 153 773 l 45 895 q 88 930 57 908 q 149 967 119 952 q 226 993 179 981 q 321 1005 273 1005 z "},"4":{"ha":672,"x_min":17,"x_max":655,"o":"m 557 379 l 655 379 l 655 202 l 557 202 l 557 0 l 331 0 l 331 202 l 17 202 l 17 363 l 315 991 l 557 991 l 557 379 m 331 379 l 331 568 l 335 644 l 208 379 l 331 379 z "},"5":{"ha":672,"x_min":54,"x_max":618,"o":"m 567 802 l 309 802 l 298 629 q 352 631 322 631 q 469 608 417 631 q 552 543 520 584 q 618 334 618 458 q 530 80 618 173 q 287 -13 441 -13 q 54 45 147 -13 l 54 238 q 201 176 120 194 q 267 169 235 169 q 380 319 380 169 q 271 458 380 458 q 149 433 224 458 l 68 491 l 99 991 l 567 991 l 567 802 z "},"6":{"ha":672,"x_min":44,"x_max":629,"o":"m 458 826 q 289 704 336 826 q 267 608 275 667 q 395 650 319 650 q 567 568 506 650 q 629 332 629 485 q 556 88 629 184 q 464 14 521 41 q 336 -13 408 -13 q 118 97 193 -13 q 44 423 44 208 q 98 785 44 652 q 220 944 139 889 q 444 1004 308 1004 q 576 986 513 1004 l 576 808 q 458 826 503 826 m 338 477 q 280 331 280 477 q 337 167 280 167 q 395 331 395 167 q 381 439 395 400 q 338 477 366 477 z "},"7":{"ha":672,"x_min":50,"x_max":623,"o":"m 50 802 l 50 990 l 623 990 l 623 854 l 353 0 l 110 0 l 380 802 l 50 802 z "},"8":{"ha":672,"x_min":42,"x_max":630,"o":"m 336 1004 q 534 932 456 1004 q 612 745 612 861 q 582 627 612 679 q 479 524 551 576 q 594 399 558 465 q 630 259 630 334 q 547 59 630 132 q 333 -13 463 -13 q 123 59 203 -13 q 42 259 42 132 q 183 517 42 414 q 90 622 121 570 q 59 749 59 675 q 99 883 59 823 q 201 973 138 943 q 336 1004 264 1004 m 335 836 q 288 745 288 836 q 337 628 288 675 q 373 680 363 652 q 383 745 383 707 q 335 836 383 836 m 326 413 q 270 258 270 360 q 334 156 270 156 q 401 259 401 156 q 383 345 401 313 q 326 413 365 377 z "},"9":{"ha":672,"x_min":44,"x_max":629,"o":"m 214 165 q 384 287 337 165 q 406 382 398 324 q 278 340 354 340 q 105 423 167 340 q 44 659 44 506 q 117 903 44 806 q 209 977 152 950 q 337 1004 265 1004 q 554 893 480 1004 q 629 568 629 783 q 575 206 629 339 q 453 47 534 102 q 229 -13 365 -13 q 96 5 160 -13 l 96 183 q 214 165 170 165 m 336 824 q 277 660 277 824 q 292 552 277 591 q 334 513 307 513 q 393 660 393 513 q 336 824 393 824 z "},"\r":{"ha":361,"x_min":0,"x_max":0,"o":""}," ":{"ha":331,"x_min":0,"x_max":0,"o":""},"!":{"ha":372,"x_min":49,"x_max":325,"o":"m 288 310 l 87 310 l 54 991 l 323 991 l 288 310 m 84 195 q 101 211 84 195 q 186 227 119 227 q 290 196 254 227 q 325 105 325 164 q 289 15 325 47 q 186 -18 252 -18 q 84 14 119 -18 q 49 105 49 46 q 84 195 49 163 z "},"\"":{"ha":654,"x_min":75,"x_max":578,"o":"m 279 615 l 104 615 l 75 991 l 309 991 l 279 615 m 549 615 l 374 615 l 345 991 l 578 991 l 549 615 z "},"#":{"ha":775,"x_min":18,"x_max":757,"o":"m 450 720 q 491 991 456 755 l 673 991 l 634 720 l 757 720 l 757 564 l 611 564 l 591 427 l 722 427 l 722 270 l 570 270 l 530 0 l 345 0 l 385 270 l 325 270 l 286 0 l 101 0 l 140 270 l 18 270 l 18 427 l 163 427 l 184 564 l 54 564 l 54 720 l 206 720 l 245 991 l 427 991 l 389 720 l 450 720 m 366 564 l 347 427 l 408 427 l 428 564 l 366 564 z "},"$":{"ha":671,"x_min":47,"x_max":630,"o":"m 402 1054 l 402 947 q 608 882 505 935 l 545 714 q 418 768 453 760 q 344 777 376 777 q 293 769 313 777 q 264 749 273 762 q 249 705 249 728 q 267 660 249 682 q 316 622 284 637 l 494 535 q 575 472 543 511 q 618 395 607 433 q 630 315 630 357 q 572 144 630 208 q 402 63 514 79 l 402 -79 l 273 -79 l 273 58 q 47 121 151 66 l 47 321 q 337 215 228 215 q 385 225 366 215 q 412 251 404 235 q 428 311 428 280 q 389 372 428 352 l 264 437 q 178 485 212 463 q 111 538 143 507 q 47 701 47 601 q 106 864 47 802 q 273 944 164 926 l 273 1054 l 402 1054 z "},"%":{"ha":1071,"x_min":16,"x_max":1051,"o":"m 16 692 q 16 769 16 692 q 72 926 16 846 q 235 1006 128 1006 q 398 926 342 1006 q 455 692 455 846 q 398 457 455 538 q 235 377 342 377 q 72 457 128 377 q 16 692 16 538 m 406 0 l 252 0 l 660 991 l 816 991 l 406 0 m 253 847 q 250 852 253 847 q 235 857 246 857 q 218 847 224 857 q 206 799 211 837 q 201 692 201 761 q 206 585 201 623 q 218 536 211 547 q 235 526 224 526 q 253 536 246 526 q 265 585 260 547 q 270 692 270 623 q 265 799 270 761 q 253 847 260 837 m 612 302 q 612 379 612 302 q 668 537 612 456 q 831 617 724 617 q 995 537 938 617 q 1051 302 1051 456 q 995 68 1051 149 q 831 -12 938 -12 q 668 68 724 -12 q 612 302 612 149 m 849 458 q 846 463 849 458 q 831 468 842 468 q 814 458 821 468 q 802 410 807 448 q 797 302 797 372 q 802 195 797 233 q 814 147 807 157 q 831 137 821 137 q 849 147 842 137 q 861 195 856 157 q 866 302 866 233 q 861 410 866 372 q 849 458 856 448 z "},"&":{"ha":829,"x_min":42,"x_max":843,"o":"m 552 50 q 332 -13 465 -13 q 121 63 199 -13 q 42 272 42 139 q 201 548 42 433 q 180 583 195 557 q 160 616 164 609 q 146 642 157 623 q 134 671 136 661 q 126 697 131 680 q 119 766 119 725 q 192 940 119 875 q 378 1005 266 1005 q 558 943 490 1005 q 627 777 627 882 q 590 644 627 707 q 472 517 553 581 q 520 449 492 489 q 568 380 547 410 q 606 534 582 418 l 815 534 q 705 192 789 341 q 775 95 726 162 q 843 0 824 27 l 587 0 l 552 50 m 407 760 q 375 827 407 827 q 350 809 360 827 q 340 758 340 791 q 371 663 340 709 q 407 760 407 705 m 309 397 q 277 293 277 352 q 298 203 277 234 q 359 172 319 172 q 441 207 399 172 q 369 312 414 246 q 309 397 323 377 z "},"'":{"ha":384,"x_min":75,"x_max":309,"o":"m 279 615 l 104 615 l 75 991 l 309 991 l 279 615 z "},"(":{"ha":496,"x_min":43,"x_max":466,"o":"m 267 385 q 465 -214 267 56 l 254 -214 q 97 58 151 -96 q 43 385 43 211 q 97 714 43 559 q 253 991 151 870 l 466 991 q 318 702 368 858 q 267 385 267 546 z "},")":{"ha":496,"x_min":31,"x_max":454,"o":"m 244 991 q 401 707 349 863 q 454 381 454 551 q 400 57 454 210 q 243 -214 346 -96 l 32 -214 q 230 385 230 62 q 179 702 230 547 q 31 991 128 858 l 244 991 z "},"*":{"ha":665,"x_min":35,"x_max":631,"o":"m 400 848 l 610 907 l 631 734 l 446 722 l 568 557 l 415 476 l 331 643 l 258 477 l 98 557 l 220 722 l 35 736 l 62 907 l 267 848 l 243 1055 l 422 1055 l 400 848 z "},"+":{"ha":608,"x_min":39,"x_max":561,"o":"m 382 573 l 561 573 l 561 408 l 382 408 l 382 229 l 217 229 l 217 408 l 39 408 l 39 573 l 217 573 l 217 751 l 382 751 l 382 573 z "},",":{"ha":419,"x_min":32,"x_max":344,"o":"m 326 186 l 344 156 q 221 -174 309 23 l 32 -174 q 105 186 81 24 l 326 186 z "},"-":{"ha":434,"x_min":22,"x_max":412,"o":"m 412 284 l 22 284 l 22 467 l 412 467 l 412 284 z "},".":{"ha":353,"x_min":52,"x_max":302,"o":"m 52 105 q 52 135 52 105 q 81 196 52 165 q 177 227 111 227 q 272 196 243 227 q 302 104 302 165 q 176 -18 302 -18 q 81 14 111 -18 q 52 105 52 45 z "},"/":{"ha":592,"x_min":0,"x_max":596,"o":"m 227 0 l 0 0 l 370 991 l 596 991 l 227 0 z "},":":{"ha":353,"x_min":52,"x_max":302,"o":"m 52 655 q 52 685 52 655 q 81 746 52 715 q 177 777 111 777 q 272 746 243 777 q 302 654 302 715 q 176 532 302 532 q 81 564 111 532 q 52 655 52 595 m 52 105 q 52 135 52 105 q 81 196 52 165 q 177 227 111 227 q 272 196 243 227 q 302 104 302 165 q 176 -18 302 -18 q 81 14 111 -18 q 52 105 52 45 z "},";":{"ha":419,"x_min":32,"x_max":347,"o":"m 96 655 q 96 685 96 655 q 126 746 96 715 q 221 777 155 777 q 317 746 288 777 q 347 654 347 715 q 221 532 347 532 q 126 564 155 532 q 96 655 96 595 m 326 186 l 344 156 q 221 -174 309 23 l 32 -174 q 105 186 81 24 l 326 186 z "},"<":{"ha":609,"x_min":39,"x_max":561,"o":"m 247 490 l 561 304 l 561 113 l 39 435 l 39 546 l 561 867 l 561 675 l 247 490 z "},"=":{"ha":609,"x_min":39,"x_max":561,"o":"m 561 536 l 39 536 l 39 701 l 561 701 l 561 536 m 561 278 l 39 278 l 39 443 l 561 443 l 561 278 z "},">":{"ha":609,"x_min":39,"x_max":561,"o":"m 354 490 q 39 675 273 538 l 39 867 l 561 546 l 561 435 l 39 113 l 39 304 l 354 490 z "},"?":{"ha":534,"x_min":-7,"x_max":516,"o":"m 253 1005 q 443 940 370 1005 q 516 763 516 875 q 463 579 516 656 q 396 500 439 546 q 349 435 363 463 q 336 365 336 407 l 336 310 l 122 310 l 122 371 q 147 490 123 440 q 220 592 170 539 l 220 592 q 298 757 298 677 q 235 825 298 825 q 71 757 177 825 l -7 923 q 253 1005 115 1005 m 135 196 q 149 212 135 196 q 230 227 164 227 q 325 196 296 227 q 354 104 354 165 q 230 -18 354 -18 q 105 104 105 -18 q 135 196 105 165 z "},"@":{"ha":1036,"x_min":49,"x_max":987,"o":"m 505 -111 q 174 29 300 -111 q 49 406 49 168 q 136 747 49 597 q 379 969 229 908 q 548 1002 459 1002 q 709 978 637 1002 q 832 910 781 954 q 918 804 883 866 q 987 507 987 684 q 958 313 987 399 q 915 231 941 265 q 848 174 890 196 q 758 152 806 152 q 620 212 663 152 q 485 152 568 152 q 336 217 388 152 q 283 412 283 283 q 324 606 283 524 q 452 731 370 697 q 551 749 497 749 q 734 715 628 749 l 720 376 q 745 294 720 294 q 772 318 761 294 q 787 381 783 342 q 795 508 795 448 q 731 767 795 679 q 547 854 667 854 q 429 826 482 854 q 342 751 376 797 q 284 646 308 705 q 251 528 261 587 q 241 412 241 469 q 250 303 241 355 q 280 202 259 251 q 331 116 300 153 q 410 58 362 80 q 515 37 457 37 q 785 115 621 37 l 785 -43 q 515 -111 658 -111 q 505 -111 510 -111 m 544 607 q 510 585 525 607 q 487 529 495 562 q 472 411 472 464 q 482 326 472 357 q 507 294 492 294 q 547 464 536 294 q 551 527 548 477 q 555 606 554 578 q 544 607 553 607 z "},"A":{"ha":773,"x_min":-7,"x_max":780,"o":"m 780 0 l 541 0 l 486 243 l 286 243 l 231 0 l -7 0 l 239 996 l 533 996 l 780 0 m 446 431 l 387 692 q 329 431 376 640 l 446 431 z "},"B":{"ha":768,"x_min":100,"x_max":709,"o":"m 100 991 l 374 991 q 615 930 540 991 q 690 733 690 868 q 650 585 690 647 q 570 522 622 541 q 676 438 642 494 q 709 294 709 382 q 630 79 709 157 q 418 0 551 1 l 100 0 l 100 991 m 326 808 l 326 604 l 380 604 q 437 630 420 604 q 454 709 454 656 q 434 785 454 762 q 373 808 415 808 l 326 808 m 326 426 l 326 186 l 388 186 q 469 311 469 186 q 385 426 469 426 l 326 426 z "},"C":{"ha":703,"x_min":64,"x_max":667,"o":"m 430 -13 q 284 15 348 -13 q 179 90 220 43 q 112 203 138 137 q 64 494 64 324 q 98 742 64 629 q 213 930 132 857 q 433 1005 297 1005 q 548 987 492 1005 q 667 928 603 970 l 600 761 q 573 779 594 766 q 534 799 552 791 q 447 820 488 820 q 381 797 407 820 q 341 739 355 773 q 319 658 327 705 q 304 493 304 581 q 450 173 304 173 q 640 245 514 173 l 640 45 q 430 -13 551 -13 z "},"D":{"ha":834,"x_min":100,"x_max":770,"o":"m 100 991 l 387 991 q 532 966 467 991 q 641 897 597 941 q 715 791 685 852 q 770 505 770 673 q 636 96 770 224 q 521 25 590 51 q 365 0 452 0 l 100 0 l 100 991 m 338 808 l 338 186 l 366 186 q 489 264 449 186 q 529 500 529 342 q 380 808 529 808 l 338 808 z "},"E":{"ha":652,"x_min":100,"x_max":592,"o":"m 592 808 l 338 808 l 338 608 l 574 608 l 574 423 l 338 423 l 338 186 l 592 186 l 592 0 l 100 0 l 100 991 l 592 991 l 592 808 z "},"F":{"ha":638,"x_min":100,"x_max":589,"o":"m 589 808 l 336 808 l 336 570 l 572 570 l 572 386 l 336 386 l 336 0 l 100 0 l 100 991 l 589 991 l 589 808 z "},"G":{"ha":825,"x_min":64,"x_max":736,"o":"m 736 563 l 736 49 q 441 -13 592 -13 q 292 15 358 -13 q 184 89 227 42 q 114 201 142 135 q 64 497 64 323 q 127 798 64 674 q 328 979 195 931 q 486 1005 399 1005 q 736 935 611 1005 l 667 755 q 497 819 556 819 q 419 798 454 819 q 364 745 385 778 q 330 669 343 713 q 304 493 304 591 q 340 255 304 338 q 444 173 376 173 q 503 179 473 173 l 503 376 l 385 376 l 385 563 l 736 563 z "},"H":{"ha":853,"x_min":100,"x_max":753,"o":"m 753 0 l 516 0 l 516 422 l 337 422 l 337 0 l 100 0 l 100 991 l 337 991 l 337 609 l 516 609 l 516 991 l 753 991 l 753 0 z "},"I":{"ha":427,"x_min":100,"x_max":327,"o":"m 327 0 l 100 0 l 100 991 l 327 991 l 327 0 z "},"J":{"ha":408,"x_min":-117,"x_max":307,"o":"m 307 991 l 307 44 q 307 37 307 41 q 228 -191 307 -104 q 26 -278 150 -278 q 22 -278 24 -278 q -117 -253 -56 -278 l -117 -66 q -7 -90 -36 -90 q 69 35 69 -90 l 69 991 l 307 991 z "},"K":{"ha":752,"x_min":100,"x_max":764,"o":"m 338 0 l 100 0 l 100 991 l 338 991 l 338 632 l 345 650 l 513 991 l 764 991 l 533 560 l 764 0 l 515 0 l 368 382 l 338 352 l 338 0 z "},"L":{"ha":631,"x_min":100,"x_max":586,"o":"m 338 186 l 586 186 l 586 0 l 100 0 l 100 991 l 338 991 l 338 186 z "},"M":{"ha":1146,"x_min":100,"x_max":1046,"o":"m 1046 0 l 818 0 l 818 555 l 694 0 l 448 0 l 324 551 l 324 0 l 100 0 l 100 991 l 431 991 l 571 342 q 712 991 703 949 l 1046 991 l 1046 0 z "},"N":{"ha":932,"x_min":100,"x_max":832,"o":"m 832 0 l 562 0 l 324 557 l 324 0 l 100 0 l 100 991 l 372 991 l 610 435 l 610 991 l 832 991 l 832 0 z "},"O":{"ha":878,"x_min":64,"x_max":813,"o":"m 291 979 q 324 993 291 979 q 440 1006 357 1006 q 589 979 524 1006 q 695 905 654 951 q 764 792 737 858 q 802 653 791 726 q 813 497 813 581 q 802 341 813 413 q 764 202 791 269 q 694 89 736 136 q 587 15 652 43 q 439 -13 522 -13 q 290 15 355 -13 q 182 89 224 43 q 113 202 140 136 q 64 498 64 324 q 183 905 64 775 q 291 979 226 951 m 440 820 q 339 738 373 820 q 304 497 304 656 q 339 257 304 339 q 439 174 373 174 q 572 497 572 174 q 440 820 572 820 z "},"P":{"ha":727,"x_min":100,"x_max":683,"o":"m 100 991 l 374 991 q 683 681 683 991 q 598 435 683 520 q 353 349 513 349 l 338 349 l 338 0 l 100 0 l 100 991 m 338 808 l 338 533 l 342 533 q 419 567 394 533 q 444 673 444 600 q 352 808 444 808 l 338 808 z "},"Q":{"ha":865,"x_min":64,"x_max":828,"o":"m 429 -13 q 157 123 250 -9 q 64 498 64 256 q 159 873 64 739 q 439 1006 252 1006 q 720 872 627 1006 q 814 497 814 737 q 642 47 814 173 q 724 -75 654 29 q 828 -229 795 -178 l 562 -229 l 429 -13 m 440 820 q 339 738 373 820 q 304 497 304 656 q 339 257 304 339 q 439 174 373 174 q 572 497 572 174 q 440 820 572 820 z "},"R":{"ha":728,"x_min":100,"x_max":751,"o":"m 100 991 l 363 991 q 605 918 527 991 q 683 691 683 844 q 562 434 683 514 l 751 0 l 501 0 l 349 374 l 337 374 l 337 0 l 100 0 l 100 991 m 337 808 l 337 557 l 355 557 q 423 589 401 557 q 444 686 444 621 q 422 779 444 751 q 353 808 400 808 l 337 808 z "},"S":{"ha":630,"x_min":54,"x_max":591,"o":"m 281 172 q 336 196 317 172 q 355 255 355 220 q 345 314 355 290 q 315 360 335 339 q 278 395 296 381 q 235 427 261 409 q 104 559 146 490 q 62 722 62 628 q 140 929 62 852 q 342 1005 218 1005 q 587 932 467 1005 l 515 758 q 494 769 511 760 q 472 781 477 779 q 452 790 467 783 q 431 800 437 798 l 413 807 q 356 819 383 819 q 312 794 328 819 q 296 734 296 769 q 305 676 296 699 q 332 633 314 653 q 409 571 363 601 q 545 443 499 510 q 591 280 591 375 q 515 63 591 138 q 299 -13 439 -13 q 54 46 159 -13 l 54 269 q 281 172 202 172 z "},"T":{"ha":660,"x_min":28,"x_max":633,"o":"m 633 805 l 448 805 l 448 0 l 212 0 l 212 805 l 28 805 l 28 991 l 633 991 l 633 805 z "},"U":{"ha":843,"x_min":95,"x_max":749,"o":"m 749 991 l 749 354 q 664 81 749 176 q 419 -13 578 -13 q 177 81 259 -13 q 95 357 95 174 l 95 991 l 331 991 l 331 344 q 424 174 331 174 q 490 217 467 174 q 513 340 513 260 l 513 991 l 749 991 z "},"V":{"ha":730,"x_min":-7,"x_max":737,"o":"m 504 0 l 225 0 l -7 991 l 231 991 l 360 393 q 366 365 363 378 l 499 991 l 737 991 l 504 0 z "},"W":{"ha":1136,"x_min":14,"x_max":1122,"o":"m 943 0 l 667 0 l 570 515 l 566 533 l 564 513 l 470 0 l 194 0 l 14 991 l 248 991 l 340 412 l 448 991 l 687 991 l 791 433 l 796 409 l 886 991 l 1122 991 l 943 0 z "},"X":{"ha":702,"x_min":-4,"x_max":705,"o":"m 353 739 l 441 991 l 688 991 l 478 507 l 705 0 l 460 0 l 346 283 l 241 0 l -4 0 l 222 515 l 12 991 l 251 991 l 353 739 z "},"Y":{"ha":688,"x_min":-7,"x_max":695,"o":"m 461 0 l 227 0 l 227 393 l -7 991 l 241 991 l 345 684 q 448 991 395 831 l 695 991 l 461 400 l 461 0 z "},"Z":{"ha":642,"x_min":35,"x_max":614,"o":"m 614 186 l 614 0 l 35 0 l 35 140 l 336 806 l 44 806 l 44 991 l 604 991 l 604 852 l 303 186 l 614 186 z "},"[":{"ha":427,"x_min":56,"x_max":422,"o":"m 422 832 l 275 832 l 275 -54 l 422 -54 l 422 -214 l 56 -214 l 56 991 l 422 991 l 422 832 z "},"\\":{"ha":549,"x_min":-28,"x_max":570,"o":"m 570 0 l 342 0 l -28 991 l 200 991 l 570 0 z "},"]":{"ha":427,"x_min":-2,"x_max":365,"o":"m 365 -214 l -2 -214 l -2 -54 l 145 -54 l 145 832 l -2 832 l -2 991 l 365 991 l 365 -214 z "},"^":{"ha":726,"x_min":-28,"x_max":746,"o":"m 746 347 l 539 347 l 346 733 l 176 347 l -28 347 l 273 997 l 406 997 l 746 347 z "},"_":{"ha":458,"x_min":-35,"x_max":486,"o":"m 486 -214 l -35 -214 l -35 -92 l 486 -92 l 486 -214 z "},"`":{"ha":742,"x_min":175,"x_max":587,"o":"m 175 1063 l 431 1063 q 553 924 465 1019 l 587 884 l 587 867 l 433 867 q 320 943 399 888 q 175 1050 242 998 l 175 1063 z "},"a":{"ha":705,"x_min":43,"x_max":623,"o":"m 92 690 q 352 770 218 770 q 554 701 486 770 q 623 503 623 631 l 623 0 l 442 0 l 420 61 q 245 -13 351 -13 q 153 7 193 -13 q 90 62 113 27 q 43 229 43 130 q 113 409 43 349 q 322 475 182 469 l 391 477 l 391 517 q 332 604 391 604 q 168 538 281 604 l 92 690 m 391 294 l 391 338 q 368 338 383 338 q 280 227 280 330 q 315 151 280 151 q 371 190 350 151 q 391 294 391 229 z "},"b":{"ha":736,"x_min":85,"x_max":684,"o":"m 316 1044 l 316 792 q 315 760 316 771 l 313 723 q 442 769 363 769 q 623 663 563 769 q 684 380 684 559 q 622 93 684 201 q 544 15 591 43 q 439 -13 496 -13 q 284 54 341 -13 l 265 0 l 85 0 l 85 1044 l 316 1044 m 316 380 q 335 210 316 255 q 383 165 354 165 q 448 379 448 165 q 382 593 448 593 q 336 555 355 593 q 316 398 317 514 l 316 380 z "},"c":{"ha":565,"x_min":52,"x_max":537,"o":"m 346 -13 q 127 85 202 -13 q 52 379 52 184 q 123 671 52 574 q 344 769 195 769 q 443 754 391 769 q 537 713 495 740 l 475 543 q 362 592 393 592 q 305 538 323 592 q 287 376 287 485 q 304 216 287 268 q 361 165 322 165 q 526 237 414 165 l 526 40 q 346 -13 441 -13 z "},"d":{"ha":736,"x_min":52,"x_max":651,"o":"m 651 0 l 469 0 l 452 55 q 297 -13 394 -13 q 194 14 239 -13 q 123 80 149 40 q 80 174 97 120 q 52 376 52 265 q 71 551 52 465 q 143 704 90 641 q 208 752 169 734 q 294 769 246 769 q 422 723 374 769 q 420 787 420 764 l 420 1044 l 651 1044 l 651 0 m 351 591 q 288 374 288 591 q 303 215 288 267 q 353 163 319 163 q 392 176 377 163 q 412 223 406 190 q 418 279 417 256 q 419 335 419 302 q 419 375 419 335 q 413 508 419 483 q 399 553 406 534 q 351 591 385 591 z "},"e":{"ha":686,"x_min":52,"x_max":634,"o":"m 374 -13 q 253 8 307 -13 q 161 65 198 29 q 99 151 124 102 q 52 372 52 245 q 93 599 52 504 q 149 688 115 650 q 234 747 183 725 q 345 769 286 769 q 448 755 404 769 q 521 720 492 741 q 572 667 550 698 q 605 605 593 635 q 624 539 616 575 q 634 426 634 486 l 634 319 l 286 319 q 401 156 294 156 q 603 233 475 156 l 603 47 q 374 -13 502 -13 m 349 607 q 288 474 296 607 l 406 474 q 349 607 400 607 z "},"f":{"ha":469,"x_min":24,"x_max":511,"o":"m 108 798 q 165 989 108 928 q 349 1051 223 1051 q 511 1012 430 1051 l 453 846 q 368 876 393 876 q 339 795 339 876 l 339 755 l 459 755 l 459 589 l 339 589 l 339 0 l 108 0 l 108 589 l 24 589 l 24 694 l 108 747 l 108 798 z "},"g":{"ha":667,"x_min":7,"x_max":650,"o":"m 318 173 l 423 173 q 587 119 530 173 q 644 -42 644 64 q 552 -248 644 -176 q 287 -321 459 -321 q 79 -265 152 -321 q 7 -104 7 -209 q 40 -2 7 -47 q 135 71 74 44 q 71 172 71 111 q 142 294 71 234 q 71 386 94 329 q 48 505 48 443 q 119 700 48 631 q 319 769 189 769 q 421 754 380 769 l 650 754 l 650 629 l 566 612 q 588 504 588 563 q 515 312 588 380 q 322 243 442 243 q 285 245 294 243 q 268 204 268 227 q 318 173 268 173 m 319 624 q 275 507 275 624 q 319 389 275 389 q 361 507 361 389 q 319 624 361 624 m 355 -8 l 271 -8 q 235 -31 248 -8 q 222 -90 222 -53 q 241 -147 222 -127 q 298 -166 261 -166 q 394 -141 361 -166 q 427 -73 427 -115 q 411 -19 427 -30 q 355 -8 395 -8 z "},"h":{"ha":762,"x_min":85,"x_max":680,"o":"m 316 1044 l 316 804 q 313 723 316 782 q 449 769 366 769 q 621 698 563 769 q 680 489 680 627 l 680 0 l 447 0 l 447 448 q 395 593 447 593 q 334 536 353 593 q 316 363 316 479 l 316 0 l 85 0 l 85 1044 l 316 1044 z "},"i":{"ha":402,"x_min":79,"x_max":326,"o":"m 79 931 q 79 956 79 931 q 112 1010 79 981 q 202 1039 145 1039 q 293 1010 260 1039 q 326 931 326 981 q 292 852 326 881 q 202 823 258 823 q 113 852 146 823 q 79 931 79 880 m 318 0 l 87 0 l 87 755 l 318 755 l 318 0 z "},"j":{"ha":355,"x_min":-77,"x_max":279,"o":"m 34 931 q 34 956 34 931 q 66 1010 34 981 q 156 1039 99 1039 q 246 1009 214 1039 q 279 930 279 980 q 246 852 279 881 q 157 823 213 823 q 67 852 101 823 q 34 931 34 880 m 271 755 l 271 -70 q 212 -255 271 -190 q 42 -321 152 -321 q -77 -296 -23 -321 l -77 -117 q 7 -144 -9 -144 q 40 -47 40 -144 l 40 755 l 271 755 z "},"k":{"ha":696,"x_min":85,"x_max":703,"o":"m 342 283 l 315 258 l 315 0 l 85 0 l 85 1044 l 315 1044 l 315 551 l 313 519 l 450 755 l 693 755 l 500 443 l 703 0 l 464 0 l 342 283 z "},"l":{"ha":401,"x_min":85,"x_max":316,"o":"m 316 0 l 85 0 l 85 1044 l 316 1044 l 316 0 z "},"m":{"ha":1120,"x_min":85,"x_max":1038,"o":"m 451 769 q 634 680 578 769 q 809 769 694 769 q 981 698 924 769 q 1038 489 1038 627 l 1038 0 l 806 0 l 806 448 q 756 593 806 593 q 696 540 714 593 q 677 368 677 487 l 677 0 l 446 0 l 446 448 q 394 593 446 593 q 338 557 354 593 q 325 522 330 538 q 317 475 319 506 q 315 363 315 432 l 315 0 l 85 0 l 85 755 l 276 755 l 288 702 q 451 769 347 769 z "},"n":{"ha":762,"x_min":85,"x_max":680,"o":"m 288 702 q 457 769 349 769 q 623 698 566 769 q 680 489 680 627 l 680 0 l 447 0 l 447 448 q 395 593 447 593 q 360 582 375 593 q 339 554 346 570 q 327 512 332 538 q 321 464 322 485 q 319 412 320 444 q 316 363 317 380 l 316 0 l 85 0 l 85 755 l 277 755 l 288 702 z "},"o":{"ha":726,"x_min":52,"x_max":673,"o":"m 159 692 q 176 710 159 692 q 247 748 194 728 q 364 769 299 769 q 481 746 429 769 q 569 686 534 724 q 628 597 604 648 q 673 379 673 501 q 592 93 673 199 q 361 -13 511 -13 q 137 93 222 -13 q 52 371 52 199 q 99 606 52 508 q 159 692 123 656 m 363 592 q 306 540 323 592 q 288 379 288 488 q 363 163 288 163 q 439 378 439 163 q 363 592 439 592 z "},"p":{"ha":736,"x_min":85,"x_max":684,"o":"m 444 769 q 531 751 492 769 q 595 701 570 732 q 638 630 621 669 q 666 545 656 591 q 684 393 684 460 q 677 275 684 326 q 653 170 671 224 q 610 77 636 117 q 539 12 583 37 q 438 -13 494 -13 q 315 26 363 -13 q 317 -9 317 3 l 317 -321 l 85 -321 l 85 755 l 272 755 l 290 699 q 444 769 347 769 m 385 593 q 333 549 349 593 q 316 389 316 504 q 332 219 316 274 q 386 165 348 165 q 448 379 448 165 q 385 593 448 593 z "},"q":{"ha":736,"x_min":52,"x_max":651,"o":"m 420 -321 l 420 -1 q 421 28 420 15 q 297 -13 372 -13 q 209 5 248 -13 q 143 55 169 23 q 98 124 117 86 q 70 208 79 162 q 52 363 52 296 q 57 481 52 431 q 80 585 63 531 q 122 679 96 639 q 192 744 149 718 q 292 769 236 769 q 439 705 385 769 l 450 755 l 651 755 l 651 -321 l 420 -321 m 350 591 q 288 374 288 591 q 302 213 288 265 q 350 161 317 161 q 390 180 378 161 q 402 201 397 191 q 411 229 408 211 q 415 260 414 248 q 418 296 417 273 q 419 332 419 319 q 419 375 419 332 q 403 540 419 489 q 350 591 387 591 z "},"r":{"ha":525,"x_min":85,"x_max":516,"o":"m 423 769 q 516 752 465 769 l 492 550 q 418 569 437 569 q 342 523 368 569 q 316 388 316 477 l 316 0 l 85 0 l 85 755 l 282 755 l 292 701 q 423 769 340 769 z "},"s":{"ha":604,"x_min":74,"x_max":555,"o":"m 138 195 q 150 188 138 195 q 199 166 161 181 q 267 151 237 151 q 311 167 296 151 q 325 210 325 182 q 313 252 325 236 q 305 263 307 259 q 294 274 302 267 q 284 283 286 281 q 271 292 281 286 q 259 300 261 299 q 247 309 258 302 q 114 423 153 365 q 74 554 74 481 q 95 652 74 610 q 155 719 117 694 q 339 769 229 769 q 553 707 450 769 l 481 551 q 343 603 387 603 q 315 590 325 603 q 305 556 305 577 q 318 517 305 535 q 346 487 331 498 q 374 469 361 476 q 408 448 387 461 q 456 414 429 435 q 507 365 483 393 q 555 227 555 310 q 485 50 555 113 q 288 -13 414 -13 q 74 40 161 -13 l 74 237 q 138 195 116 208 z "},"t":{"ha":506,"x_min":29,"x_max":470,"o":"m 332 755 l 464 755 l 464 589 l 332 589 l 332 221 q 362 163 332 163 q 470 197 392 163 l 470 27 q 309 -13 412 -13 q 100 227 100 -13 l 100 589 l 29 589 l 29 684 l 121 748 q 145 833 128 775 q 169 912 163 890 l 332 912 l 332 755 z "},"u":{"ha":764,"x_min":83,"x_max":680,"o":"m 680 0 l 486 0 l 474 53 q 310 -13 412 -13 q 83 267 83 -13 l 83 755 l 316 755 l 316 309 q 368 163 316 163 q 437 236 425 163 q 445 299 444 274 q 446 355 446 323 q 446 755 446 355 l 680 755 l 680 0 z "},"v":{"ha":647,"x_min":-7,"x_max":654,"o":"m 323 335 q 416 755 336 397 l 654 755 l 456 0 l 190 0 l -7 755 l 231 755 l 323 335 z "},"w":{"ha":1021,"x_min":10,"x_max":1011,"o":"m 860 0 l 583 0 l 509 422 q 435 0 504 387 l 161 0 l 10 755 l 242 755 l 305 375 l 374 755 l 649 755 l 718 370 l 784 755 l 1011 755 l 860 0 z "},"x":{"ha":633,"x_min":0,"x_max":633,"o":"m 435 386 l 633 0 l 393 0 l 313 180 l 239 0 l 0 0 l 197 386 q 8 755 62 650 l 247 755 l 319 589 l 387 755 l 626 755 l 435 386 z "},"y":{"ha":646,"x_min":-8,"x_max":652,"o":"m 341 -245 q 324 -264 341 -245 q 258 -302 307 -283 q 147 -321 209 -321 q 24 -303 85 -321 l 24 -125 q 113 -144 85 -144 q 199 -40 174 -144 l 211 4 l -8 755 l 230 755 l 328 351 q 412 755 337 393 l 652 755 l 440 -42 q 399 -158 422 -109 q 341 -245 376 -207 z "},"z":{"ha":535,"x_min":26,"x_max":507,"o":"m 507 169 l 507 0 l 26 0 l 26 125 l 242 587 l 41 587 l 41 755 l 498 755 l 498 618 l 288 169 l 507 169 z "},"{":{"ha":578,"x_min":35,"x_max":540,"o":"m 425 743 l 425 543 q 297 389 423 426 q 425 243 425 353 l 425 36 q 439 -24 425 -11 q 540 -46 460 -43 l 540 -214 q 279 -169 351 -212 q 204 -13 207 -127 l 204 196 q 161 276 204 252 q 35 301 119 301 l 35 477 q 204 575 204 477 l 204 791 q 278 947 205 905 q 540 992 351 989 l 540 824 q 440 802 460 822 q 425 743 425 790 z "},"|":{"ha":705,"x_min":256,"x_max":450,"o":"m 450 -310 l 256 -310 l 256 1050 l 450 1050 l 450 -310 z "},"}":{"ha":578,"x_min":38,"x_max":543,"o":"m 38 991 q 300 947 235 991 l 299 947 q 375 791 375 895 l 375 575 q 417 500 375 524 q 543 477 459 477 l 543 301 q 417 277 458 301 q 375 196 375 252 l 375 -12 q 298 -169 375 -118 l 299 -169 q 38 -214 233 -214 l 38 -46 q 138 -24 117 -43 q 154 36 154 -11 l 154 241 q 283 389 154 352 q 154 543 156 426 l 154 743 q 138 803 154 790 q 38 824 119 822 l 38 991 z "},"~":{"ha":654,"x_min":61,"x_max":593,"o":"m 454 388 q 314 419 389 388 q 182 450 239 450 q 61 387 125 450 l 61 534 q 200 591 116 591 q 268 584 235 591 q 358 553 300 576 q 472 529 416 529 q 531 546 498 529 q 593 592 564 562 l 593 445 q 454 388 538 388 z "},"¡":{"ha":363,"x_min":40,"x_max":316,"o":"m 40 642 q 40 671 40 642 q 76 733 40 701 q 178 765 113 765 q 280 733 244 765 q 316 642 316 701 q 280 552 316 583 q 178 521 244 521 q 76 552 111 521 q 40 642 40 584 m 313 -243 l 41 -243 l 75 438 l 278 438 l 313 -243 z "},"¢":{"ha":629,"x_min":66,"x_max":558,"o":"m 430 1003 l 430 892 q 558 843 493 880 l 494 671 q 380 720 409 720 q 321 667 340 720 q 303 504 303 614 q 321 341 303 394 q 378 289 339 289 q 545 363 432 289 l 545 165 q 430 117 486 127 l 430 -13 l 262 -13 l 262 125 q 66 500 66 197 q 116 753 66 656 q 262 886 166 851 l 262 1003 l 430 1003 z "},"£":{"ha":629,"x_min":19,"x_max":621,"o":"m 123 591 l 123 721 q 192 932 123 859 q 392 1005 260 1005 q 608 947 505 1005 l 540 774 q 402 825 452 825 q 356 717 356 825 l 356 591 l 515 591 l 515 429 l 356 429 l 356 355 q 290 189 356 254 l 621 189 l 621 0 l 19 0 l 19 170 q 104 243 84 205 q 123 340 123 276 l 123 429 l 20 429 l 20 591 l 123 591 z "},"¤":{"ha":741,"x_min":27,"x_max":703,"o":"m 238 737 q 365 764 295 764 q 489 736 435 764 l 579 827 l 703 709 l 616 623 q 652 489 652 559 q 616 358 652 418 l 700 275 l 581 155 l 489 245 q 365 218 432 218 q 237 243 298 218 l 148 156 l 28 276 l 113 359 q 77 488 77 421 q 113 621 77 554 q 27 707 70 664 l 148 827 l 238 737 m 439 574 q 365 608 404 608 q 292 574 326 608 q 262 491 262 543 q 294 406 262 438 q 365 374 326 374 q 436 406 404 374 q 469 490 469 438 q 439 574 469 543 z "},"¥":{"ha":629,"x_min":-33,"x_max":652,"o":"m 588 497 l 588 356 l 427 356 l 427 292 l 588 292 l 588 151 l 427 151 l 427 0 l 194 0 l 194 151 l 32 151 l 32 292 l 194 292 l 194 356 l 32 356 l 32 497 l 150 497 l -33 991 l 212 991 l 311 667 l 408 991 l 652 991 l 471 497 l 588 497 z "},"¦":{"ha":690,"x_min":243,"x_max":437,"o":"m 437 489 l 243 489 l 243 1050 l 437 1050 l 437 489 m 437 -310 l 243 -310 l 243 252 l 437 252 l 437 -310 z "},"§":{"ha":578,"x_min":22,"x_max":538,"o":"m 31 526 q 111 687 31 626 q 35 850 35 749 q 105 1001 35 941 q 285 1055 171 1055 q 536 1000 399 1055 l 484 847 q 413 877 439 867 q 290 906 339 906 q 255 892 267 906 q 243 854 243 878 q 261 812 243 831 q 318 770 278 793 l 374 737 q 500 635 467 682 q 538 509 538 578 q 460 338 538 406 q 515 276 498 309 q 532 199 532 243 q 463 36 532 94 q 256 -23 393 -23 q 22 24 119 -23 l 22 189 q 245 123 160 123 q 303 139 285 123 q 322 187 322 154 q 305 226 322 208 q 248 267 288 244 l 249 267 q 113 354 148 322 q 49 435 68 395 q 31 526 31 475 m 335 486 q 248 607 335 557 q 229 543 229 582 q 243 486 229 505 q 311 433 266 459 l 324 425 q 335 486 335 450 z "},"¨":{"ha":753,"x_min":134,"x_max":627,"o":"m 134 959 q 134 981 134 959 q 161 1029 134 1004 q 236 1054 188 1054 q 312 1028 284 1054 q 340 959 340 1002 q 312 890 340 916 q 236 865 284 865 q 161 889 188 865 q 134 959 134 914 m 420 959 q 420 981 420 959 q 448 1029 420 1004 q 523 1054 475 1054 q 599 1028 571 1054 q 627 959 627 1002 q 599 890 627 916 q 523 865 571 865 q 448 889 475 865 q 420 959 420 914 z "},"©":{"ha":1131,"x_min":117,"x_max":1014,"o":"m 341 885 q 393 915 341 885 q 564 945 446 945 q 786 886 683 945 q 952 724 890 828 q 1014 497 1014 619 q 954 271 1014 374 q 790 107 893 168 q 565 47 688 47 q 338 109 442 47 q 175 275 233 171 q 117 497 117 378 q 177 720 117 615 q 341 885 237 825 m 743 799 q 567 846 662 846 q 390 800 471 846 q 261 671 309 753 q 214 496 214 590 q 262 319 214 401 q 391 191 310 237 q 567 145 473 145 q 741 192 661 145 q 869 320 822 239 q 916 495 916 401 q 870 670 916 589 q 743 799 825 752 m 587 216 q 390 290 460 216 q 321 496 321 363 q 388 701 321 628 q 580 774 456 774 q 772 728 680 774 l 717 606 q 591 639 654 639 q 515 602 542 639 q 488 493 488 566 q 514 386 488 420 q 595 351 540 351 q 749 392 677 351 l 749 254 q 587 216 673 216 z "},"ª":{"ha":449,"x_min":6,"x_max":408,"o":"m 30 932 q 223 994 130 994 q 362 946 316 994 q 408 808 408 898 l 408 503 l 278 503 l 271 531 q 156 494 224 494 q 47 533 88 494 q 6 651 6 572 q 56 767 6 729 q 215 812 106 805 l 241 813 q 203 869 238 869 q 81 815 170 869 l 30 932 m 226 708 q 188 692 200 705 q 176 648 176 680 q 189 616 176 616 q 227 639 213 616 q 241 701 241 661 l 241 709 l 226 708 z "},"«":{"ha":760,"x_min":18,"x_max":733,"o":"m 265 381 l 412 149 l 239 52 l 18 372 l 18 389 l 239 710 l 412 614 l 265 381 m 586 381 l 733 149 l 559 52 l 339 372 l 339 389 l 559 710 l 733 614 l 586 381 z "},"¬":{"ha":609,"x_min":39,"x_max":561,"o":"m 561 165 l 374 165 l 374 407 l 39 407 l 39 572 l 561 572 l 561 165 z "},"­":{"ha":425,"x_min":15,"x_max":404,"o":"m 404 284 l 15 284 l 15 467 l 404 467 l 404 284 z "},"®":{"ha":1131,"x_min":117,"x_max":1014,"o":"m 341 885 q 393 915 341 885 q 564 945 446 945 q 786 886 683 945 q 952 724 890 828 q 1014 497 1014 619 q 954 271 1014 374 q 790 107 893 168 q 565 47 688 47 q 338 109 442 47 q 175 275 233 171 q 117 497 117 378 q 177 720 117 615 q 341 885 237 825 m 743 799 q 567 846 662 846 q 390 800 471 846 q 261 671 309 753 q 214 496 214 590 q 262 319 214 401 q 391 191 310 237 q 567 145 473 145 q 741 192 661 145 q 869 320 822 239 q 916 495 916 401 q 870 670 916 589 q 743 799 825 752 m 363 768 l 538 768 q 781 608 781 768 q 696 463 781 503 l 812 246 l 639 246 l 552 437 l 531 437 l 531 246 l 363 246 l 363 768 m 531 652 l 531 543 l 538 543 q 612 601 612 543 q 596 641 612 629 q 538 652 579 652 l 531 652 z "},"¯":{"ha":681,"x_min":-11,"x_max":692,"o":"m 692 1055 l -11 1055 l -11 1183 l 692 1183 l 692 1055 z "},"°":{"ha":550,"x_min":36,"x_max":510,"o":"m 105 936 q 140 970 105 936 q 273 1005 174 1005 q 440 936 371 1005 q 510 768 510 866 q 440 600 510 669 q 273 531 371 531 q 105 600 174 531 q 36 768 36 669 q 105 936 36 866 m 338 833 q 325 847 338 833 q 273 861 311 861 q 207 833 234 861 q 180 768 180 806 q 207 702 180 729 q 273 675 234 675 q 338 702 311 675 q 366 768 366 729 q 338 833 366 806 z "},"±":{"ha":609,"x_min":39,"x_max":561,"o":"m 393 407 l 393 165 l 561 165 l 561 0 l 39 0 l 39 165 l 205 165 l 205 407 l 39 407 l 39 572 l 205 572 l 205 818 l 393 818 l 393 572 l 561 572 l 561 407 l 393 407 z "},"²":{"ha":453,"x_min":20,"x_max":414,"o":"m 219 1005 q 351 957 303 1005 q 399 826 399 909 q 347 682 399 752 q 317 643 327 654 q 293 616 307 631 q 278 599 279 600 q 275 595 277 597 q 271 591 273 593 l 223 537 l 414 537 l 414 386 l 24 386 l 24 506 l 148 660 q 245 825 245 779 q 233 851 245 844 q 205 859 220 859 q 98 791 166 859 l 20 908 q 219 1005 109 1005 z "},"³":{"ha":453,"x_min":25,"x_max":409,"o":"m 25 920 q 119 985 74 966 q 212 1004 164 1004 q 299 986 260 1004 q 365 930 338 969 q 393 838 393 891 q 312 703 393 746 q 385 646 360 684 q 409 562 409 609 q 355 424 409 474 q 199 374 301 374 q 30 422 98 374 l 30 563 q 192 509 102 509 q 246 572 246 509 q 230 623 246 603 q 181 643 213 643 l 121 643 l 121 743 l 172 743 q 218 765 201 743 q 234 814 234 787 q 223 855 234 842 q 197 868 213 868 q 82 824 146 868 l 25 920 z "},"´":{"ha":742,"x_min":145,"x_max":557,"o":"m 557 1062 l 557 1050 q 424 950 506 1009 q 300 867 341 892 l 145 867 l 145 884 q 263 1013 241 987 q 302 1062 286 1039 l 557 1062 z "},"¶":{"ha":721,"x_min":11,"x_max":651,"o":"m 651 -171 l 492 -171 l 492 898 l 444 898 l 444 -171 l 285 -171 l 285 359 q 243 356 268 356 q 68 441 125 356 q 11 703 11 526 q 71 966 11 879 q 261 1053 132 1053 l 651 1053 l 651 -171 z "},"·":{"ha":361,"x_min":40,"x_max":316,"o":"m 75 581 q 92 597 75 581 q 178 613 110 613 q 281 582 245 613 q 316 491 316 550 q 280 400 316 433 q 177 368 243 368 q 75 400 111 368 q 40 491 40 432 q 75 581 40 549 z "},"¸":{"ha":269,"x_min":-13,"x_max":271,"o":"m 271 -149 q 98 -292 271 -292 q 47 -286 75 -292 q 3 -274 19 -280 l -13 -268 l -13 -153 q 76 -173 37 -173 q 115 -140 115 -173 q 93 -106 115 -122 q 49 -84 71 -91 l 27 -77 q 67 1 66 1 l 168 1 l 162 -16 q 201 -32 180 -18 q 237 -60 223 -46 q 261 -97 251 -74 q 271 -149 271 -121 z "},"¹":{"ha":453,"x_min":26,"x_max":337,"o":"m 337 386 l 168 386 l 168 704 l 172 785 l 104 718 l 26 829 l 202 991 l 337 991 l 337 386 z "},"º":{"ha":452,"x_min":9,"x_max":434,"o":"m 377 925 q 434 743 434 854 q 379 564 434 633 q 221 494 324 494 q 64 564 119 494 q 9 746 9 636 q 63 925 9 857 q 221 994 117 994 q 378 925 326 994 l 377 925 m 264 744 q 264 804 264 744 q 221 865 264 865 q 178 744 178 865 q 221 623 178 623 q 264 744 264 623 z "},"»":{"ha":760,"x_min":16,"x_max":730,"o":"m 163 381 l 16 614 l 189 710 l 410 389 l 410 372 l 189 52 l 16 149 l 163 381 m 484 381 l 336 614 l 510 710 l 730 389 l 730 372 l 510 52 l 336 149 l 484 381 z "},"¼":{"ha":1069,"x_min":11,"x_max":981,"o":"m 321 386 l 153 386 l 153 704 l 157 785 l 88 718 l 11 829 l 186 991 l 321 991 l 321 386 m 338 0 l 146 0 l 649 991 l 842 991 l 338 0 m 915 239 l 981 239 l 981 105 l 915 105 l 915 1 l 746 1 l 746 105 l 542 105 l 542 216 l 755 610 l 915 610 l 915 239 m 746 239 l 746 353 l 683 239 l 746 239 z "},"½":{"ha":1069,"x_min":22,"x_max":1021,"o":"m 332 386 l 163 386 l 163 704 l 168 785 l 99 718 l 22 829 l 197 991 l 332 991 l 332 386 m 344 0 l 153 0 l 656 991 l 848 991 l 344 0 m 826 608 q 958 561 910 608 q 1006 429 1006 513 q 954 285 1006 355 q 924 246 934 258 q 900 219 914 235 q 885 202 886 203 q 882 199 884 201 q 878 195 880 197 l 830 140 l 1021 140 l 1021 -11 l 631 -11 l 631 109 l 755 263 q 852 429 852 382 q 840 455 852 447 q 812 463 827 463 q 705 394 773 463 l 627 511 q 826 608 715 608 z "},"¾":{"ha":1069,"x_min":25,"x_max":981,"o":"m 25 920 q 119 985 74 966 q 212 1004 164 1004 q 299 986 260 1004 q 365 930 338 969 q 393 838 393 891 q 312 703 393 746 q 385 646 360 684 q 409 562 409 609 q 355 424 409 474 q 199 374 301 374 q 30 422 98 374 l 30 563 q 192 509 102 509 q 246 572 246 509 q 230 623 246 603 q 181 643 213 643 l 121 643 l 121 743 l 172 743 q 218 765 201 743 q 234 814 234 787 q 223 855 234 842 q 197 868 213 868 q 82 824 146 868 l 25 920 m 361 0 l 170 0 l 672 991 l 865 991 l 361 0 m 915 239 l 981 239 l 981 105 l 915 105 l 915 1 l 746 1 l 746 105 l 542 105 l 542 216 l 755 610 l 915 610 l 915 239 m 746 239 l 746 353 l 683 239 l 746 239 z "},"¿":{"ha":517,"x_min":3,"x_max":526,"o":"m 152 642 q 152 671 152 642 q 188 733 152 701 q 290 765 224 765 q 392 733 356 765 q 428 642 428 701 q 392 552 428 583 q 290 521 356 521 q 188 552 223 521 q 152 642 152 584 m 397 438 l 397 376 q 377 266 397 314 q 307 162 357 218 q 241 75 256 105 l 242 75 q 231 8 231 48 q 245 -55 231 -33 q 284 -78 258 -78 q 447 -9 344 -78 l 526 -176 q 273 -258 407 -258 q 75 -193 140 -258 q 3 -15 3 -124 q 45 152 3 79 q 112 236 62 183 q 173 315 161 289 q 184 382 184 340 l 184 438 l 397 438 z "},"À":{"ha":728,"x_min":-35,"x_max":752,"o":"m 95 1292 l 351 1292 q 473 1153 385 1248 l 507 1114 l 507 1097 l 353 1097 q 240 1172 319 1117 q 95 1280 162 1227 l 95 1292 m 752 0 l 513 0 l 458 243 l 258 243 l 203 0 l -35 0 l 212 996 l 505 996 l 752 0 m 418 431 l 359 692 q 301 431 348 640 l 418 431 z "},"Á":{"ha":728,"x_min":-35,"x_max":752,"o":"m 621 1291 l 621 1279 q 487 1180 570 1238 q 363 1096 405 1121 l 209 1096 l 209 1113 q 327 1242 304 1216 q 366 1291 350 1268 l 621 1291 m 752 0 l 513 0 l 458 243 l 258 243 l 203 0 l -35 0 l 212 996 l 505 996 l 752 0 m 418 431 l 359 692 q 301 431 348 640 l 418 431 z "},"Â":{"ha":728,"x_min":-35,"x_max":752,"o":"m 629 1097 l 477 1097 q 357 1186 427 1125 q 241 1097 283 1122 l 87 1097 l 87 1114 q 172 1203 126 1149 q 241 1292 218 1256 l 476 1292 q 629 1114 531 1212 l 629 1097 m 752 0 l 513 0 l 458 243 l 258 243 l 203 0 l -35 0 l 212 996 l 505 996 l 752 0 m 418 431 l 359 692 q 301 431 348 640 l 418 431 z "},"Ã":{"ha":728,"x_min":-35,"x_max":752,"o":"m 463 1069 q 356 1098 425 1069 q 258 1127 286 1127 q 215 1069 227 1127 l 108 1069 q 151 1223 114 1173 q 258 1273 187 1273 q 358 1244 288 1273 q 459 1215 428 1215 q 501 1274 490 1215 l 610 1274 q 566 1122 604 1174 q 463 1069 528 1069 m 752 0 l 513 0 l 458 243 l 258 243 l 203 0 l -35 0 l 212 996 l 505 996 l 752 0 m 418 431 l 359 692 q 301 431 348 640 l 418 431 z "},"Ä":{"ha":728,"x_min":-35,"x_max":752,"o":"m 122 1188 q 122 1211 122 1188 q 149 1258 122 1233 q 224 1283 176 1283 q 300 1257 273 1283 q 328 1188 328 1231 q 300 1119 328 1145 q 224 1094 273 1094 q 149 1119 176 1094 q 122 1188 122 1143 m 409 1188 q 409 1211 409 1188 q 436 1258 409 1233 q 511 1283 463 1283 q 587 1257 559 1283 q 615 1188 615 1231 q 587 1119 615 1145 q 511 1094 559 1094 q 436 1119 463 1094 q 409 1188 409 1143 m 752 0 l 513 0 l 458 243 l 258 243 l 203 0 l -35 0 l 212 996 l 505 996 l 752 0 m 418 431 l 359 692 q 301 431 348 640 l 418 431 z "},"Å":{"ha":728,"x_min":-35,"x_max":752,"o":"m 208 1070 q 250 1181 208 1139 q 364 1222 292 1222 q 481 1180 435 1222 q 528 1072 528 1138 q 507 991 528 1024 l 752 0 l 513 0 l 458 243 l 258 243 l 203 0 l -35 0 l 212 996 l 224 996 q 208 1070 208 1028 m 400 1106 q 393 1113 400 1106 q 365 1120 386 1120 q 330 1106 344 1120 q 315 1070 315 1093 q 328 1034 315 1048 q 363 1020 341 1020 q 400 1034 386 1020 q 415 1070 415 1048 q 400 1106 415 1093 m 418 431 l 359 692 q 301 431 348 640 l 418 431 z "},"Æ":{"ha":953,"x_min":-34,"x_max":910,"o":"m 277 243 q 203 0 241 127 l -34 0 l 287 991 l 910 991 l 910 808 l 659 808 l 659 608 l 892 608 l 892 423 l 659 423 l 659 186 l 910 186 l 910 0 l 421 0 l 421 243 l 277 243 m 421 431 l 421 713 l 443 786 q 450 808 446 798 l 450 808 l 421 823 l 421 713 l 336 431 l 421 431 z "},"Ç":{"ha":629,"x_min":24,"x_max":628,"o":"m 495 799 q 486 803 495 799 q 452 813 477 807 q 397 820 427 820 q 342 797 368 820 q 302 739 316 773 q 279 658 288 705 q 265 493 265 581 q 411 173 265 173 q 600 245 475 173 l 600 45 q 401 -13 515 -11 l 399 -16 q 439 -32 417 -18 q 474 -60 460 -46 q 498 -97 488 -74 q 508 -149 508 -121 q 336 -292 508 -292 q 284 -286 312 -292 q 240 -274 256 -280 l 224 -268 l 224 -153 q 314 -173 275 -173 q 353 -140 353 -173 q 331 -106 353 -122 q 286 -84 309 -91 l 264 -77 q 302 -3 294 -20 q 170 61 226 14 q 84 178 115 108 q 24 494 24 311 q 58 742 24 629 q 174 930 92 857 q 393 1005 258 1005 q 508 987 453 1005 q 628 928 564 970 l 560 761 q 534 779 555 766 q 495 799 513 791 z "},"È":{"ha":578,"x_min":24,"x_max":545,"o":"m 24 1292 l 281 1292 q 402 1153 314 1248 l 437 1114 l 437 1097 l 282 1097 q 170 1172 248 1117 q 24 1280 92 1227 l 24 1292 m 545 808 l 291 808 l 291 608 l 527 608 l 527 423 l 291 423 l 291 186 l 545 186 l 545 0 l 54 0 l 54 991 l 545 991 l 545 808 z "},"É":{"ha":578,"x_min":54,"x_max":574,"o":"m 574 1291 l 574 1279 q 440 1180 523 1238 q 317 1096 358 1121 l 162 1096 l 162 1113 q 280 1242 258 1216 q 319 1291 303 1268 l 574 1291 m 545 808 l 291 808 l 291 608 l 527 608 l 527 423 l 291 423 l 291 186 l 545 186 l 545 0 l 54 0 l 54 991 l 545 991 l 545 808 z "},"Ê":{"ha":578,"x_min":27,"x_max":569,"o":"m 569 1097 l 417 1097 q 297 1186 368 1125 q 181 1097 222 1122 l 27 1097 l 27 1114 q 112 1203 66 1149 q 181 1292 158 1256 l 416 1292 q 569 1114 471 1212 l 569 1097 m 545 808 l 291 808 l 291 608 l 527 608 l 527 423 l 291 423 l 291 186 l 545 186 l 545 0 l 54 0 l 54 991 l 545 991 l 545 808 z "},"Ë":{"ha":578,"x_min":54,"x_max":557,"o":"m 64 1188 q 64 1211 64 1188 q 91 1258 64 1233 q 166 1283 118 1283 q 242 1257 214 1283 q 270 1188 270 1231 q 242 1119 270 1145 q 166 1094 214 1094 q 91 1119 118 1094 q 64 1188 64 1143 m 351 1188 q 351 1211 351 1188 q 378 1258 351 1233 q 453 1283 405 1283 q 529 1257 501 1283 q 557 1188 557 1231 q 529 1119 557 1145 q 453 1094 501 1094 q 378 1119 405 1094 q 351 1188 351 1143 m 545 808 l 291 808 l 291 608 l 527 608 l 527 423 l 291 423 l 291 186 l 545 186 l 545 0 l 54 0 l 54 991 l 545 991 l 545 808 z "},"Ì":{"ha":403,"x_min":-70,"x_max":342,"o":"m -70 1292 l 186 1292 q 308 1153 220 1248 l 342 1114 l 342 1097 l 188 1097 q 76 1172 154 1117 q -70 1280 -3 1227 l -70 1292 m 311 0 l 85 0 l 85 991 l 311 991 l 311 0 z "},"Í":{"ha":403,"x_min":47,"x_max":460,"o":"m 460 1291 l 460 1279 q 326 1180 408 1238 q 202 1096 243 1121 l 47 1096 l 47 1113 q 166 1242 143 1216 q 205 1291 189 1268 l 460 1291 m 311 0 l 85 0 l 85 991 l 311 991 l 311 0 z "},"Î":{"ha":403,"x_min":-75,"x_max":467,"o":"m 467 1097 l 315 1097 q 195 1186 264 1125 q 79 1097 121 1122 l -75 1097 l -75 1114 q 9 1203 -37 1149 q 79 1292 56 1256 l 313 1292 q 467 1114 368 1212 l 467 1097 m 311 0 l 85 0 l 85 991 l 311 991 l 311 0 z "},"Ï":{"ha":403,"x_min":-41,"x_max":452,"o":"m -41 1188 q -41 1211 -41 1188 q -14 1258 -41 1233 q 62 1283 14 1283 q 138 1257 110 1283 q 165 1188 165 1231 q 138 1119 165 1145 q 62 1094 110 1094 q -14 1119 14 1094 q -41 1188 -41 1143 m 246 1188 q 246 1211 246 1188 q 273 1258 246 1233 q 349 1283 300 1283 q 425 1257 397 1283 q 452 1188 452 1231 q 425 1119 452 1145 q 349 1094 397 1094 q 273 1119 300 1094 q 246 1188 246 1143 m 311 0 l 85 0 l 85 991 l 311 991 l 311 0 z "},"Ð":{"ha":821,"x_min":-7,"x_max":770,"o":"m 100 991 l 387 991 q 532 966 467 991 q 641 897 597 941 q 715 791 685 852 q 770 505 770 673 q 636 96 770 224 q 521 25 590 51 q 365 0 452 0 l 100 0 l 100 410 l -7 410 l -7 570 l 100 570 l 100 991 m 338 808 l 338 570 l 405 570 l 405 410 l 338 410 l 338 186 l 366 186 q 489 264 449 186 q 529 500 529 342 q 380 808 529 808 l 338 808 z "},"Ñ":{"ha":856,"x_min":56,"x_max":787,"o":"m 526 1069 q 419 1098 488 1069 q 321 1127 349 1127 q 278 1069 290 1127 l 171 1069 q 214 1223 177 1173 q 321 1273 250 1273 q 421 1244 351 1273 q 522 1215 491 1215 q 564 1274 553 1215 l 673 1274 q 629 1122 667 1174 q 526 1069 591 1069 m 787 0 l 517 0 l 279 557 l 279 0 l 56 0 l 56 991 l 327 991 l 565 435 l 565 991 l 787 991 l 787 0 z "},"Ò":{"ha":813,"x_min":26,"x_max":775,"o":"m 130 1292 l 386 1292 q 507 1153 419 1248 l 542 1114 l 542 1097 l 387 1097 q 275 1172 353 1117 q 130 1280 197 1227 l 130 1292 m 253 979 q 286 993 253 979 q 402 1006 319 1006 q 551 979 486 1006 q 657 905 616 951 q 726 792 699 858 q 764 653 753 726 q 775 497 775 581 q 764 341 775 413 q 726 202 753 269 q 656 89 699 136 q 549 15 614 43 q 401 -13 484 -13 q 252 15 317 -13 q 144 89 186 43 q 75 202 102 136 q 26 498 26 324 q 145 905 26 775 q 253 979 188 951 m 402 820 q 301 738 335 820 q 267 497 267 656 q 301 257 267 339 q 401 174 335 174 q 534 497 534 174 q 402 820 534 820 z "},"Ó":{"ha":813,"x_min":26,"x_max":775,"o":"m 670 1291 l 670 1279 q 536 1180 618 1238 q 412 1096 454 1121 l 258 1096 l 258 1113 q 376 1242 353 1216 q 415 1291 399 1268 l 670 1291 m 253 979 q 286 993 253 979 q 402 1006 319 1006 q 551 979 486 1006 q 657 905 616 951 q 726 792 699 858 q 764 653 753 726 q 775 497 775 581 q 764 341 775 413 q 726 202 753 269 q 656 89 699 136 q 549 15 614 43 q 401 -13 484 -13 q 252 15 317 -13 q 144 89 186 43 q 75 202 102 136 q 26 498 26 324 q 145 905 26 775 q 253 979 188 951 m 402 820 q 301 738 335 820 q 267 497 267 656 q 301 257 267 339 q 401 174 335 174 q 534 497 534 174 q 402 820 534 820 z "},"Ô":{"ha":813,"x_min":26,"x_max":775,"o":"m 670 1097 l 518 1097 q 398 1186 468 1125 q 282 1097 324 1122 l 128 1097 l 128 1114 q 213 1203 167 1149 q 282 1292 259 1256 l 517 1292 q 670 1114 572 1212 l 670 1097 m 253 979 q 286 993 253 979 q 402 1006 319 1006 q 551 979 486 1006 q 657 905 616 951 q 726 792 699 858 q 764 653 753 726 q 775 497 775 581 q 764 341 775 413 q 726 202 753 269 q 656 89 699 136 q 549 15 614 43 q 401 -13 484 -13 q 252 15 317 -13 q 144 89 186 43 q 75 202 102 136 q 26 498 26 324 q 145 905 26 775 q 253 979 188 951 m 402 820 q 301 738 335 820 q 267 497 267 656 q 301 257 267 339 q 401 174 335 174 q 534 497 534 174 q 402 820 534 820 z "},"Õ":{"ha":813,"x_min":26,"x_max":775,"o":"m 505 1069 q 398 1098 467 1069 q 300 1127 328 1127 q 257 1069 269 1127 l 150 1069 q 193 1223 156 1173 q 300 1273 229 1273 q 400 1244 330 1273 q 501 1215 471 1215 q 543 1274 532 1215 l 652 1274 q 608 1122 646 1174 q 505 1069 570 1069 m 253 979 q 286 993 253 979 q 402 1006 319 1006 q 551 979 486 1006 q 657 905 616 951 q 726 792 699 858 q 764 653 753 726 q 775 497 775 581 q 764 341 775 413 q 726 202 753 269 q 656 89 699 136 q 549 15 614 43 q 401 -13 484 -13 q 252 15 317 -13 q 144 89 186 43 q 75 202 102 136 q 26 498 26 324 q 145 905 26 775 q 253 979 188 951 m 402 820 q 301 738 335 820 q 267 497 267 656 q 301 257 267 339 q 401 174 335 174 q 534 497 534 174 q 402 820 534 820 z "},"Ö":{"ha":813,"x_min":26,"x_max":775,"o":"m 163 1188 q 163 1211 163 1188 q 190 1258 163 1233 q 265 1283 217 1283 q 341 1257 313 1283 q 369 1188 369 1231 q 341 1119 369 1145 q 265 1094 313 1094 q 190 1119 217 1094 q 163 1188 163 1143 m 450 1188 q 450 1211 450 1188 q 477 1258 450 1233 q 552 1283 504 1283 q 628 1257 600 1283 q 656 1188 656 1231 q 628 1119 656 1145 q 552 1094 600 1094 q 477 1119 504 1094 q 450 1188 450 1143 m 253 979 q 286 993 253 979 q 402 1006 319 1006 q 551 979 486 1006 q 657 905 616 951 q 726 792 699 858 q 764 653 753 726 q 775 497 775 581 q 764 341 775 413 q 726 202 753 269 q 656 89 699 136 q 549 15 614 43 q 401 -13 484 -13 q 252 15 317 -13 q 144 89 186 43 q 75 202 102 136 q 26 498 26 324 q 145 905 26 775 q 253 979 188 951 m 402 820 q 301 738 335 820 q 267 497 267 656 q 301 257 267 339 q 401 174 335 174 q 534 497 534 174 q 402 820 534 820 z "},"×":{"ha":608,"x_min":56,"x_max":543,"o":"m 543 616 l 417 490 l 543 364 l 426 247 l 300 373 l 174 247 l 56 364 l 182 490 l 56 616 l 174 734 l 300 608 l 426 734 l 543 616 z "},"Ø":{"ha":813,"x_min":27,"x_max":777,"o":"m 777 497 q 727 202 777 323 q 658 89 700 136 q 551 15 616 43 q 400 -13 486 -13 q 246 17 315 -13 l 201 -73 l 75 -9 l 132 105 q 27 498 27 235 q 146 905 27 775 q 255 979 189 951 q 409 1006 320 1006 q 569 971 497 1006 l 616 1063 l 742 1000 l 680 878 q 777 497 777 746 m 404 820 q 302 738 336 820 q 268 497 268 656 q 273 384 268 429 l 475 785 q 404 820 447 820 m 402 174 q 535 497 535 174 q 532 584 535 530 l 338 199 q 402 174 366 174 z "},"Ù":{"ha":767,"x_min":51,"x_max":705,"o":"m 106 1292 l 363 1292 q 484 1153 396 1248 l 519 1114 l 519 1097 l 364 1097 q 252 1172 330 1117 q 106 1280 174 1227 l 106 1292 m 705 991 l 705 354 q 620 81 705 176 q 375 -13 534 -13 q 133 81 215 -13 q 51 357 51 174 l 51 991 l 287 991 l 287 344 q 380 174 287 174 q 446 217 422 174 q 469 340 469 260 l 469 991 l 705 991 z "},"Ú":{"ha":767,"x_min":51,"x_max":705,"o":"m 648 1291 l 648 1279 q 514 1180 596 1238 q 390 1096 431 1121 l 235 1096 l 235 1113 q 354 1242 331 1216 q 393 1291 376 1268 l 648 1291 m 705 991 l 705 354 q 620 81 705 176 q 375 -13 534 -13 q 133 81 215 -13 q 51 357 51 174 l 51 991 l 287 991 l 287 344 q 380 174 287 174 q 446 217 422 174 q 469 340 469 260 l 469 991 l 705 991 z "},"Û":{"ha":767,"x_min":51,"x_max":705,"o":"m 648 1097 l 496 1097 q 376 1186 446 1125 q 260 1097 301 1122 l 106 1097 l 106 1114 q 191 1203 144 1149 q 260 1292 237 1256 l 494 1292 q 648 1114 549 1212 l 648 1097 m 705 991 l 705 354 q 620 81 705 176 q 375 -13 534 -13 q 133 81 215 -13 q 51 357 51 174 l 51 991 l 287 991 l 287 344 q 380 174 287 174 q 446 217 422 174 q 469 340 469 260 l 469 991 l 705 991 z "},"Ü":{"ha":767,"x_min":51,"x_max":705,"o":"m 140 1188 q 140 1211 140 1188 q 168 1258 140 1233 q 243 1283 195 1283 q 319 1257 291 1283 q 347 1188 347 1231 q 319 1119 347 1145 q 243 1094 291 1094 q 168 1119 195 1094 q 140 1188 140 1143 m 427 1188 q 427 1211 427 1188 q 454 1258 427 1233 q 530 1283 481 1283 q 606 1257 578 1283 q 633 1188 633 1231 q 606 1119 633 1145 q 530 1094 578 1094 q 454 1119 481 1094 q 427 1188 427 1143 m 705 991 l 705 354 q 620 81 705 176 q 375 -13 534 -13 q 133 81 215 -13 q 51 357 51 174 l 51 991 l 287 991 l 287 344 q 380 174 287 174 q 446 217 422 174 q 469 340 469 260 l 469 991 l 705 991 z "},"Ý":{"ha":638,"x_min":-37,"x_max":665,"o":"m 581 1291 l 581 1279 q 447 1180 530 1238 q 323 1096 365 1121 l 169 1096 l 169 1113 q 287 1242 264 1216 q 326 1291 310 1268 l 581 1291 m 431 0 l 197 0 l 197 393 l -37 991 l 212 991 l 315 684 l 418 991 l 665 991 l 431 400 l 431 0 z "},"Þ":{"ha":652,"x_min":54,"x_max":637,"o":"m 292 838 l 326 838 q 637 527 637 838 q 552 280 637 366 q 307 194 467 194 l 292 194 l 292 0 l 54 0 l 54 991 l 292 991 l 292 838 m 292 655 l 292 378 l 296 378 q 373 412 348 378 q 398 520 398 446 q 307 655 398 655 l 292 655 z "},"ß":{"ha":738,"x_min":46,"x_max":724,"o":"m 46 0 l 46 766 q 127 978 46 904 q 352 1051 208 1051 q 574 992 497 1051 q 658 827 658 928 q 581 645 658 726 l 547 611 q 519 559 519 581 q 529 524 519 537 q 608 452 553 495 q 701 349 677 395 q 724 235 724 302 q 651 52 724 117 q 446 -13 578 -13 q 277 26 350 -13 l 277 0 l 46 0 m 317 431 q 288 529 288 480 q 307 613 288 578 q 360 683 325 649 q 409 743 395 717 q 424 803 424 770 q 406 857 424 836 q 354 878 388 878 q 277 760 277 878 l 277 217 q 431 151 378 151 q 490 221 490 151 q 477 275 490 255 q 408 344 454 308 l 408 343 q 317 431 340 395 z "},"à":{"ha":635,"x_min":6,"x_max":585,"o":"m 63 1063 l 319 1063 q 441 924 353 1019 l 475 884 l 475 867 l 321 867 q 209 943 287 888 q 63 1050 130 998 l 63 1063 m 54 690 q 315 770 181 770 q 517 701 449 770 q 585 503 585 631 l 585 0 l 405 0 l 383 61 q 208 -13 314 -13 q 116 7 155 -13 q 53 62 76 27 q 6 229 6 130 q 75 409 6 349 q 285 475 144 469 l 354 477 l 354 517 q 294 604 354 604 q 131 538 243 604 l 54 690 m 354 294 l 354 338 q 331 338 346 338 q 243 227 243 330 q 278 151 243 151 q 333 190 313 151 q 354 294 354 229 z "},"á":{"ha":635,"x_min":6,"x_max":592,"o":"m 592 1062 l 592 1050 q 458 950 541 1009 q 334 867 376 892 l 180 867 l 180 884 q 298 1013 275 987 q 337 1062 321 1039 l 592 1062 m 54 690 q 315 770 181 770 q 517 701 449 770 q 585 503 585 631 l 585 0 l 405 0 l 383 61 q 208 -13 314 -13 q 116 7 155 -13 q 53 62 76 27 q 6 229 6 130 q 75 409 6 349 q 285 475 144 469 l 354 477 l 354 517 q 294 604 354 604 q 131 538 243 604 l 54 690 m 354 294 l 354 338 q 331 338 346 338 q 243 227 243 330 q 278 151 243 151 q 333 190 313 151 q 354 294 354 229 z "},"â":{"ha":635,"x_min":6,"x_max":594,"o":"m 594 867 l 442 867 q 322 956 392 895 q 206 867 248 892 l 52 867 l 52 884 q 137 973 91 920 q 206 1062 183 1026 l 441 1062 q 594 884 496 982 l 594 867 m 54 690 q 315 770 181 770 q 517 701 449 770 q 585 503 585 631 l 585 0 l 405 0 l 383 61 q 208 -13 314 -13 q 116 7 155 -13 q 53 62 76 27 q 6 229 6 130 q 75 409 6 349 q 285 475 144 469 l 354 477 l 354 517 q 294 604 354 604 q 131 538 243 604 l 54 690 m 354 294 l 354 338 q 331 338 346 338 q 243 227 243 330 q 278 151 243 151 q 333 190 313 151 q 354 294 354 229 z "},"ã":{"ha":635,"x_min":6,"x_max":585,"o":"m 430 840 q 322 869 392 840 q 224 898 253 898 q 182 840 193 898 l 75 840 q 117 994 81 944 q 224 1044 154 1044 q 325 1015 255 1044 q 426 986 395 986 q 468 1044 456 986 l 576 1044 q 533 892 570 945 q 430 840 495 840 m 54 690 q 315 770 181 770 q 517 701 449 770 q 585 503 585 631 l 585 0 l 405 0 l 383 61 q 208 -13 314 -13 q 116 7 155 -13 q 53 62 76 27 q 6 229 6 130 q 75 409 6 349 q 285 475 144 469 l 354 477 l 354 517 q 294 604 354 604 q 131 538 243 604 l 54 690 m 354 294 l 354 338 q 331 338 346 338 q 243 227 243 330 q 278 151 243 151 q 333 190 313 151 q 354 294 354 229 z "},"ä":{"ha":635,"x_min":6,"x_max":585,"o":"m 87 959 q 87 981 87 959 q 114 1029 87 1004 q 189 1054 141 1054 q 265 1028 237 1054 q 293 959 293 1002 q 265 890 293 916 q 189 865 237 865 q 114 889 141 865 q 87 959 87 914 m 374 959 q 374 981 374 959 q 401 1029 374 1004 q 476 1054 428 1054 q 552 1028 524 1054 q 580 959 580 1002 q 552 890 580 916 q 476 865 524 865 q 401 889 428 865 q 374 959 374 914 m 54 690 q 315 770 181 770 q 517 701 449 770 q 585 503 585 631 l 585 0 l 405 0 l 383 61 q 208 -13 314 -13 q 116 7 155 -13 q 53 62 76 27 q 6 229 6 130 q 75 409 6 349 q 285 475 144 469 l 354 477 l 354 517 q 294 604 354 604 q 131 538 243 604 l 54 690 m 354 294 l 354 338 q 331 338 346 338 q 243 227 243 330 q 278 151 243 151 q 333 190 313 151 q 354 294 354 229 z "},"å":{"ha":635,"x_min":6,"x_max":585,"o":"m 328 1157 q 364 1157 328 1157 q 446 1115 399 1157 q 492 1005 492 1073 q 446 896 492 938 q 329 854 400 854 q 214 896 257 854 q 172 1006 172 937 q 214 1116 172 1074 q 328 1157 256 1157 m 365 1041 q 357 1048 365 1041 q 329 1055 350 1055 q 294 1041 308 1055 q 279 1005 279 1027 q 292 969 279 983 q 328 955 305 955 q 365 969 350 955 q 379 1005 379 983 q 365 1041 379 1027 m 54 690 q 315 770 181 770 q 517 701 449 770 q 585 503 585 631 l 585 0 l 405 0 l 383 61 q 208 -13 314 -13 q 116 7 155 -13 q 53 62 76 27 q 6 229 6 130 q 75 409 6 349 q 285 475 144 469 l 354 477 l 354 517 q 294 604 354 604 q 131 538 243 604 l 54 690 m 354 294 l 354 338 q 331 338 346 338 q 243 227 243 330 q 278 151 243 151 q 333 190 313 151 q 354 294 354 229 z "},"æ":{"ha":967,"x_min":9,"x_max":933,"o":"m 323 770 q 492 723 429 770 q 649 769 555 769 q 777 742 722 769 q 865 667 831 715 q 933 426 930 573 l 933 319 l 585 319 q 700 156 592 156 q 902 219 801 156 l 902 47 q 673 -13 801 -13 q 450 77 528 -13 q 245 -13 377 -13 q 70 48 130 -13 q 9 229 9 110 q 79 409 9 349 q 288 475 148 469 l 357 477 l 357 515 q 298 604 357 604 q 134 538 247 604 l 58 690 q 323 770 184 770 m 707 474 q 649 607 700 607 q 589 474 597 607 l 707 474 m 357 294 l 357 338 q 334 338 349 338 q 269 309 292 338 q 246 227 246 280 q 281 151 246 151 q 337 190 316 151 q 357 294 357 229 z "},"ç":{"ha":502,"x_min":18,"x_max":503,"o":"m 328 592 q 271 538 289 592 q 253 376 253 485 q 271 216 253 268 q 328 165 288 165 q 492 237 380 165 l 492 40 q 330 -12 414 -8 l 329 -16 q 368 -32 347 -18 q 404 -60 390 -46 q 428 -97 418 -74 q 437 -149 437 -121 q 265 -292 437 -292 q 214 -286 241 -292 q 170 -274 186 -280 l 154 -268 l 154 -153 q 243 -173 204 -173 q 282 -140 282 -173 q 260 -106 282 -122 q 216 -84 238 -91 l 194 -77 q 231 -4 222 -20 q 72 117 127 22 q 18 374 18 213 q 89 671 18 574 q 310 769 161 769 q 409 754 357 769 q 503 713 461 740 l 441 543 q 328 592 359 592 z "},"è":{"ha":625,"x_min":19,"x_max":602,"o":"m 62 1063 l 318 1063 q 439 924 351 1019 l 474 884 l 474 867 l 319 867 q 207 943 286 888 q 62 1050 129 998 l 62 1063 m 341 -13 q 220 8 275 -13 q 129 65 165 29 q 66 151 92 102 q 19 372 19 245 q 60 599 19 504 q 117 688 83 650 q 202 747 151 725 q 312 769 253 769 q 415 755 372 769 q 488 720 459 741 q 539 667 517 698 q 572 605 561 635 q 591 539 584 575 q 602 426 602 486 l 602 319 l 253 319 q 368 156 261 156 q 570 233 442 156 l 570 47 q 341 -13 469 -13 m 316 607 q 256 474 263 607 l 373 474 q 316 607 368 607 z "},"é":{"ha":625,"x_min":19,"x_max":602,"o":"m 583 1062 l 583 1050 q 449 950 531 1009 q 325 867 366 892 l 170 867 l 170 884 q 289 1013 266 987 q 328 1062 311 1039 l 583 1062 m 341 -13 q 220 8 275 -13 q 129 65 165 29 q 66 151 92 102 q 19 372 19 245 q 60 599 19 504 q 117 688 83 650 q 202 747 151 725 q 312 769 253 769 q 415 755 372 769 q 488 720 459 741 q 539 667 517 698 q 572 605 561 635 q 591 539 584 575 q 602 426 602 486 l 602 319 l 253 319 q 368 156 261 156 q 570 233 442 156 l 570 47 q 341 -13 469 -13 m 316 607 q 256 474 263 607 l 373 474 q 316 607 368 607 z "},"ê":{"ha":625,"x_min":19,"x_max":602,"o":"m 589 867 l 437 867 q 317 957 387 896 q 201 867 243 892 l 47 867 l 47 884 q 132 974 85 920 q 201 1063 178 1027 l 435 1063 q 589 884 490 983 l 589 867 m 341 -13 q 220 8 275 -13 q 129 65 165 29 q 66 151 92 102 q 19 372 19 245 q 60 599 19 504 q 117 688 83 650 q 202 747 151 725 q 312 769 253 769 q 415 755 372 769 q 488 720 459 741 q 539 667 517 698 q 572 605 561 635 q 591 539 584 575 q 602 426 602 486 l 602 319 l 253 319 q 368 156 261 156 q 570 233 442 156 l 570 47 q 341 -13 469 -13 m 316 607 q 256 474 263 607 l 373 474 q 316 607 368 607 z "},"ë":{"ha":625,"x_min":19,"x_max":602,"o":"m 81 959 q 81 981 81 959 q 109 1029 81 1004 q 184 1054 136 1054 q 260 1028 232 1054 q 288 959 288 1002 q 260 890 288 916 q 184 865 232 865 q 109 889 136 865 q 81 959 81 914 m 368 959 q 368 981 368 959 q 395 1029 368 1004 q 471 1054 422 1054 q 547 1028 519 1054 q 574 959 574 1002 q 547 890 574 916 q 471 865 519 865 q 395 889 422 865 q 368 959 368 914 m 341 -13 q 220 8 275 -13 q 129 65 165 29 q 66 151 92 102 q 19 372 19 245 q 60 599 19 504 q 117 688 83 650 q 202 747 151 725 q 312 769 253 769 q 415 755 372 769 q 488 720 459 741 q 539 667 517 698 q 572 605 561 635 q 591 539 584 575 q 602 426 602 486 l 602 319 l 253 319 q 368 156 261 156 q 570 233 442 156 l 570 47 q 341 -13 469 -13 m 316 607 q 256 474 263 607 l 373 474 q 316 607 368 607 z "},"ì":{"ha":323,"x_min":-111,"x_max":318,"o":"m -111 1063 l 146 1063 q 267 924 179 1019 l 302 884 l 302 867 l 147 867 q 35 943 113 888 q -111 1050 -43 998 l -111 1063 m 318 0 l 87 0 l 87 755 l 318 755 l 318 0 z "},"í":{"ha":323,"x_min":11,"x_max":423,"o":"m 423 1062 l 423 1050 q 289 950 372 1009 q 165 867 207 892 l 11 867 l 11 884 q 129 1013 106 987 q 168 1062 152 1039 l 423 1062 m 318 0 l 87 0 l 87 755 l 318 755 l 318 0 z "},"î":{"ha":323,"x_min":-117,"x_max":425,"o":"m 425 867 l 273 867 q 153 957 222 896 q 37 867 79 892 l -117 867 l -117 884 q -31 975 -81 918 q 37 1063 14 1028 l 271 1063 q 425 884 326 983 l 425 867 m 318 0 l 87 0 l 87 755 l 318 755 l 318 0 z "},"ï":{"ha":323,"x_min":-82,"x_max":411,"o":"m -82 959 q -82 981 -82 959 q -55 1029 -82 1004 q 20 1054 -28 1054 q 96 1028 68 1054 q 124 959 124 1002 q 96 890 124 916 q 20 865 68 865 q -55 889 -28 865 q -82 959 -82 914 m 205 959 q 205 981 205 959 q 232 1029 205 1004 q 307 1054 259 1054 q 383 1028 355 1054 q 411 959 411 1002 q 383 890 411 916 q 307 865 355 865 q 232 889 259 865 q 205 959 205 914 m 318 0 l 87 0 l 87 755 l 318 755 l 318 0 z "},"ð":{"ha":672,"x_min":19,"x_max":640,"o":"m 357 969 l 500 1066 l 583 940 l 473 869 q 640 386 640 686 q 559 95 640 205 l 560 95 q 331 -13 481 -13 q 99 82 180 -13 q 19 332 19 177 q 90 581 19 487 q 299 675 161 675 q 388 654 348 675 q 316 768 361 715 l 168 670 l 85 796 l 208 874 q 111 934 168 902 l 190 1066 q 357 969 307 1005 m 332 509 q 273 465 291 509 q 254 335 254 421 q 274 207 254 250 q 332 163 294 163 q 388 212 370 163 q 406 360 406 260 q 386 469 406 429 q 332 509 366 509 z "},"ñ":{"ha":690,"x_min":45,"x_max":640,"o":"m 445 840 q 337 869 407 840 q 239 898 268 898 q 197 840 208 898 l 90 840 q 132 994 96 944 q 239 1044 169 1044 q 340 1015 270 1044 q 440 986 410 986 q 483 1044 471 986 l 591 1044 q 548 892 585 945 q 445 840 510 840 m 248 702 q 417 769 309 769 q 583 698 526 769 q 640 489 640 627 l 640 0 l 407 0 l 407 448 q 355 593 407 593 q 320 582 335 593 q 299 554 306 570 q 287 512 292 538 q 281 464 282 485 q 279 412 280 444 q 276 363 277 380 l 276 0 l 45 0 l 45 755 l 237 755 l 248 702 z "},"ò":{"ha":672,"x_min":19,"x_max":640,"o":"m 70 1063 l 326 1063 q 448 924 359 1019 l 482 884 l 482 867 l 328 867 q 215 943 294 888 q 70 1050 137 998 l 70 1063 m 125 692 q 143 710 125 692 q 213 748 161 728 q 331 769 266 769 q 448 746 395 769 q 536 686 501 724 q 595 597 571 648 q 640 379 640 501 q 559 93 640 199 q 328 -13 478 -13 q 104 93 189 -13 q 19 371 19 199 q 66 606 19 508 q 125 692 90 656 m 330 592 q 272 540 290 592 q 254 379 254 488 q 330 163 254 163 q 406 378 406 163 q 330 592 406 592 z "},"ó":{"ha":672,"x_min":19,"x_max":640,"o":"m 595 1062 l 595 1050 q 461 950 543 1009 q 337 867 378 892 l 182 867 l 182 884 q 301 1013 278 987 q 340 1062 323 1039 l 595 1062 m 125 692 q 143 710 125 692 q 213 748 161 728 q 331 769 266 769 q 448 746 395 769 q 536 686 501 724 q 595 597 571 648 q 640 379 640 501 q 559 93 640 199 q 328 -13 478 -13 q 104 93 189 -13 q 19 371 19 199 q 66 606 19 508 q 125 692 90 656 m 330 592 q 272 540 290 592 q 254 379 254 488 q 330 163 254 163 q 406 378 406 163 q 330 592 406 592 z "},"ô":{"ha":672,"x_min":19,"x_max":640,"o":"m 602 867 l 450 867 q 330 957 400 896 q 214 867 255 892 l 60 867 l 60 884 q 144 974 98 920 q 214 1063 191 1027 l 448 1063 q 602 884 503 983 l 602 867 m 125 692 q 143 710 125 692 q 213 748 161 728 q 331 769 266 769 q 448 746 395 769 q 536 686 501 724 q 595 597 571 648 q 640 379 640 501 q 559 93 640 199 q 328 -13 478 -13 q 104 93 189 -13 q 19 371 19 199 q 66 606 19 508 q 125 692 90 656 m 330 592 q 272 540 290 592 q 254 379 254 488 q 330 163 254 163 q 406 378 406 163 q 330 592 406 592 z "},"õ":{"ha":672,"x_min":19,"x_max":640,"o":"m 435 840 q 328 869 397 840 q 230 898 258 898 q 187 840 199 898 l 80 840 q 123 994 86 944 q 230 1044 159 1044 q 330 1015 260 1044 q 431 986 400 986 q 473 1044 462 986 l 582 1044 q 538 892 576 945 q 435 840 500 840 m 125 692 q 143 710 125 692 q 213 748 161 728 q 331 769 266 769 q 448 746 395 769 q 536 686 501 724 q 595 597 571 648 q 640 379 640 501 q 559 93 640 199 q 328 -13 478 -13 q 104 93 189 -13 q 19 371 19 199 q 66 606 19 508 q 125 692 90 656 m 330 592 q 272 540 290 592 q 254 379 254 488 q 330 163 254 163 q 406 378 406 163 q 330 592 406 592 z "},"ö":{"ha":672,"x_min":19,"x_max":640,"o":"m 94 959 q 94 981 94 959 q 121 1029 94 1004 q 197 1054 149 1054 q 273 1028 245 1054 q 300 959 300 1002 q 273 890 300 916 q 197 865 245 865 q 121 889 149 865 q 94 959 94 914 m 381 959 q 381 981 381 959 q 408 1029 381 1004 q 484 1054 435 1054 q 559 1028 532 1054 q 587 959 587 1002 q 559 890 587 916 q 484 865 532 865 q 408 889 435 865 q 381 959 381 914 m 125 692 q 143 710 125 692 q 213 748 161 728 q 331 769 266 769 q 448 746 395 769 q 536 686 501 724 q 595 597 571 648 q 640 379 640 501 q 559 93 640 199 q 328 -13 478 -13 q 104 93 189 -13 q 19 371 19 199 q 66 606 19 508 q 125 692 90 656 m 330 592 q 272 540 290 592 q 254 379 254 488 q 330 163 254 163 q 406 378 406 163 q 330 592 406 592 z "},"÷":{"ha":609,"x_min":39,"x_max":561,"o":"m 298 830 q 380 802 353 830 q 408 721 408 774 q 379 639 408 669 q 299 610 350 610 q 217 637 248 610 q 187 720 187 664 q 298 830 187 830 m 561 407 l 39 407 l 39 572 l 561 572 l 561 407 m 298 370 q 380 342 353 370 q 408 261 408 313 q 379 179 408 208 q 299 149 350 149 q 217 177 248 149 q 187 260 187 204 q 298 370 187 370 z "},"ø":{"ha":672,"x_min":19,"x_max":640,"o":"m 640 379 q 559 93 640 199 q 328 -13 478 -13 q 218 7 271 -13 l 181 -65 l 63 -11 l 111 84 q 19 371 19 191 q 66 606 19 508 q 125 692 90 656 q 213 748 161 728 q 330 769 266 769 q 449 746 394 769 l 481 808 l 599 753 l 553 665 q 618 535 597 610 q 640 379 640 460 m 330 592 q 272 540 290 592 q 254 379 254 488 l 254 363 l 363 578 q 330 592 349 592 m 330 163 q 406 374 404 163 l 302 172 q 330 163 314 163 z "},"ù":{"ha":690,"x_min":38,"x_max":634,"o":"m 73 1063 l 329 1063 q 450 924 362 1019 l 485 884 l 485 867 l 330 867 q 218 943 296 888 q 73 1050 140 998 l 73 1063 m 634 0 l 441 0 l 429 53 q 264 -13 367 -13 q 38 267 38 -13 l 38 755 l 271 755 l 271 309 q 322 163 271 163 q 392 236 379 163 q 400 299 399 274 q 401 355 401 323 l 401 755 l 634 755 l 634 0 z "},"ú":{"ha":690,"x_min":38,"x_max":634,"o":"m 605 1062 l 605 1050 q 471 950 553 1009 q 347 867 389 892 l 193 867 l 193 884 q 311 1013 288 987 q 350 1062 334 1039 l 605 1062 m 634 0 l 441 0 l 429 53 q 264 -13 367 -13 q 38 267 38 -13 l 38 755 l 271 755 l 271 309 q 322 163 271 163 q 392 236 379 163 q 400 299 399 274 q 401 355 401 323 l 401 755 l 634 755 l 634 0 z "},"û":{"ha":690,"x_min":38,"x_max":634,"o":"m 610 867 l 458 867 q 338 957 408 896 q 222 867 263 892 l 68 867 l 68 884 q 153 974 106 920 q 222 1063 199 1027 l 456 1063 q 610 884 511 983 l 610 867 m 634 0 l 441 0 l 429 53 q 264 -13 367 -13 q 38 267 38 -13 l 38 755 l 271 755 l 271 309 q 322 163 271 163 q 392 236 379 163 q 400 299 399 274 q 401 355 401 323 l 401 755 l 634 755 l 634 0 z "},"ü":{"ha":690,"x_min":38,"x_max":634,"o":"m 101 959 q 101 981 101 959 q 128 1029 101 1004 q 203 1054 155 1054 q 279 1028 252 1054 q 307 959 307 1002 q 279 890 307 916 q 203 865 252 865 q 128 889 155 865 q 101 959 101 914 m 388 959 q 388 981 388 959 q 415 1029 388 1004 q 490 1054 442 1054 q 566 1028 538 1054 q 594 959 594 1002 q 566 890 594 916 q 490 865 538 865 q 415 889 442 865 q 388 959 388 914 m 634 0 l 441 0 l 429 53 q 264 -13 367 -13 q 38 267 38 -13 l 38 755 l 271 755 l 271 309 q 322 163 271 163 q 392 236 379 163 q 400 299 399 274 q 401 355 401 323 l 401 755 l 634 755 l 634 0 z "},"ý":{"ha":606,"x_min":-33,"x_max":627,"o":"m 557 1062 l 557 1050 q 423 950 505 1009 q 299 867 340 892 l 144 867 l 144 884 q 263 1013 240 987 q 302 1062 286 1039 l 557 1062 m 316 -245 q 299 -264 316 -245 q 233 -302 282 -283 q 122 -321 184 -321 q -1 -303 60 -321 l -1 -125 q 87 -144 60 -144 q 174 -40 149 -144 l 186 4 l -33 755 l 205 755 l 303 351 l 387 755 l 627 755 l 415 -42 q 374 -158 397 -109 q 316 -245 351 -207 z "},"þ":{"ha":675,"x_min":45,"x_max":644,"o":"m 276 1044 l 276 792 q 275 760 276 771 l 273 724 q 404 769 323 769 q 583 663 521 769 q 644 379 644 555 q 582 95 644 202 q 397 -13 519 -13 q 275 26 324 -13 q 277 -9 277 3 l 277 -321 l 45 -321 l 45 1044 l 276 1044 m 276 380 q 292 216 276 267 q 346 165 309 165 q 408 379 408 165 q 345 593 408 593 q 293 549 309 593 q 276 404 277 505 l 276 380 z "},"ÿ":{"ha":606,"x_min":-33,"x_max":627,"o":"m 60 959 q 60 981 60 959 q 87 1029 60 1004 q 163 1054 115 1054 q 239 1028 211 1054 q 267 959 267 1002 q 239 890 267 916 q 163 865 211 865 q 87 889 115 865 q 60 959 60 914 m 347 959 q 347 981 347 959 q 374 1029 347 1004 q 450 1054 401 1054 q 526 1028 498 1054 q 553 959 553 1002 q 526 890 553 916 q 450 865 498 865 q 374 889 401 865 q 347 959 347 914 m 316 -245 q 299 -264 316 -245 q 233 -302 282 -283 q 122 -321 184 -321 q -1 -303 60 -321 l -1 -125 q 87 -144 60 -144 q 174 -40 149 -144 l 186 4 l -33 755 l 205 755 l 303 351 q 387 755 312 393 l 627 755 l 415 -42 q 374 -158 397 -109 q 316 -245 351 -207 z "},"ı":{"ha":416,"x_min":94,"x_max":325,"o":"m 325 0 l 94 0 l 94 755 l 325 755 l 325 0 z "},"Œ":{"ha":967,"x_min":26,"x_max":925,"o":"m 925 0 l 505 0 q 402 -13 458 -13 q 121 121 215 -13 q 26 498 26 258 q 121 872 26 738 q 404 1006 215 1006 q 513 991 465 1006 l 925 991 l 925 808 l 673 808 l 673 608 l 905 608 l 905 423 l 673 423 l 673 186 l 925 186 l 925 0 m 404 820 q 302 738 336 820 q 268 497 268 656 q 302 257 268 339 q 402 174 336 174 q 435 178 422 174 l 435 817 q 404 820 421 820 z "},"œ":{"ha":1025,"x_min":22,"x_max":989,"o":"m 960 47 q 729 -13 856 -13 q 527 60 603 -13 q 332 -13 453 -13 q 326 -13 329 -13 q 107 93 192 -13 q 22 374 22 199 q 22 379 22 376 q 104 663 22 557 q 334 769 183 769 q 522 698 445 769 q 707 769 593 769 q 916 676 843 769 q 989 426 989 581 l 989 319 l 643 319 q 676 197 647 237 q 757 156 706 156 q 960 233 833 156 l 960 47 m 706 607 q 646 474 653 607 l 763 474 q 706 607 758 607 m 333 592 q 276 540 294 592 q 258 379 258 488 q 333 163 258 163 q 409 378 409 163 q 333 592 409 592 z "},"Š":{"ha":560,"x_min":14,"x_max":558,"o":"m 558 1276 q 405 1098 458 1176 l 170 1098 q 104 1183 148 1133 q 16 1276 60 1234 l 16 1293 l 170 1293 q 286 1204 212 1268 q 406 1293 357 1265 l 558 1293 l 558 1276 m 241 172 q 296 196 277 172 q 315 255 315 220 q 304 314 315 290 q 275 360 294 339 q 238 395 255 381 q 195 427 220 409 q 63 559 106 490 q 21 722 21 628 q 99 929 21 852 q 302 1005 178 1005 q 547 932 426 1005 l 474 758 q 453 769 470 760 q 431 781 436 779 q 412 790 427 783 q 391 800 397 798 l 372 807 q 315 819 342 819 q 272 794 288 819 q 256 734 256 769 q 264 676 256 699 q 292 633 273 653 q 368 571 323 601 q 504 443 458 510 q 550 280 550 375 q 474 63 550 138 q 258 -13 398 -13 q 14 46 118 -13 l 14 269 q 241 172 161 172 z "},"š":{"ha":506,"x_min":-20,"x_max":522,"o":"m 522 1047 q 369 869 422 947 l 134 869 q 68 954 112 903 q -20 1047 24 1005 l -20 1064 l 134 1064 q 250 975 176 1039 q 370 1064 320 1036 l 522 1064 l 522 1047 m 74 195 q 85 188 74 195 q 135 166 96 181 q 202 151 173 151 q 246 167 232 151 q 260 210 260 182 q 248 252 260 236 q 240 263 243 259 q 230 274 238 267 q 219 283 222 281 q 207 292 217 286 q 195 300 197 299 q 182 309 193 302 q 49 423 89 365 q 9 554 9 481 q 31 652 9 610 q 90 719 52 694 q 275 769 165 769 q 488 707 385 769 l 417 551 q 279 603 323 603 q 251 590 260 603 q 241 556 241 577 q 254 517 241 535 q 281 487 267 498 q 309 469 296 476 q 343 448 322 461 q 392 414 365 435 q 443 365 418 393 q 491 227 491 310 q 420 50 491 113 q 223 -13 350 -13 q 9 40 97 -13 l 9 237 q 74 195 52 208 z "},"Ÿ":{"ha":638,"x_min":-37,"x_max":665,"o":"m 77 1188 q 77 1211 77 1188 q 104 1258 77 1233 q 180 1283 132 1283 q 256 1257 228 1283 q 283 1188 283 1231 q 256 1119 283 1145 q 180 1094 228 1094 q 104 1119 132 1094 q 77 1188 77 1143 m 364 1188 q 364 1211 364 1188 q 391 1258 364 1233 q 467 1283 418 1283 q 543 1257 515 1283 q 570 1188 570 1231 q 543 1119 570 1145 q 467 1094 515 1094 q 391 1119 418 1094 q 364 1188 364 1143 m 431 0 l 197 0 l 197 393 l -37 991 l 212 991 l 315 684 q 418 991 365 831 l 665 991 l 431 400 l 431 0 z "},"Ž":{"ha":581,"x_min":-3,"x_max":576,"o":"m 558 1276 q 405 1098 458 1176 l 170 1098 q 104 1183 148 1133 q 16 1276 60 1234 l 16 1293 l 170 1293 q 286 1204 212 1268 q 406 1293 357 1265 l 558 1293 l 558 1276 m 576 186 l 576 0 l -3 0 l -3 140 l 298 806 l 6 806 l 6 991 l 566 991 l 566 852 l 265 186 l 576 186 z "},"ž":{"ha":482,"x_min":-30,"x_max":512,"o":"m 512 1047 q 359 869 412 947 l 124 869 q 58 954 102 903 q -30 1047 14 1005 l -30 1064 l 124 1064 q 240 975 165 1039 q 360 1064 311 1036 l 512 1064 l 512 1047 m 477 169 l 477 0 l -4 0 l -4 125 l 212 587 l 10 587 l 10 755 l 468 755 l 468 618 l 258 169 l 477 169 z "},"ƒ":{"ha":629,"x_min":3,"x_max":614,"o":"m 406 533 l 405 -64 q 338 -256 405 -191 q 144 -321 272 -321 q 3 -300 79 -321 l 3 -121 q 108 -144 78 -144 q 152 -119 138 -144 q 165 -42 165 -94 l 165 533 l 58 533 l 58 641 l 165 692 l 165 743 q 227 935 165 873 q 424 996 288 996 q 614 957 523 996 l 559 793 q 450 822 480 822 q 406 736 406 822 l 406 701 l 549 701 l 549 533 l 406 533 z "},"ˆ":{"ha":756,"x_min":100,"x_max":642,"o":"m 642 867 l 490 867 q 370 957 441 896 q 254 867 296 892 l 100 867 l 100 884 q 185 974 139 920 q 254 1063 231 1027 l 489 1063 q 642 884 544 983 l 642 867 z "},"ˇ":{"ha":756,"x_min":104,"x_max":646,"o":"m 646 1047 q 493 869 546 947 l 258 869 q 192 954 236 903 q 104 1047 149 1005 l 104 1064 l 258 1064 q 374 975 300 1039 q 494 1064 445 1036 l 646 1064 l 646 1047 z "},"˘":{"ha":750,"x_min":164,"x_max":585,"o":"m 585 1063 q 522 899 577 956 q 370 842 467 842 q 221 899 274 842 q 164 1063 168 956 l 273 1063 q 297 996 278 1015 q 372 978 317 978 q 447 997 427 978 q 475 1063 468 1015 l 585 1063 z "},"˙":{"ha":372,"x_min":82,"x_max":290,"o":"m 186 856 q 82 953 82 856 q 186 1050 82 1050 q 290 953 290 1050 q 263 881 290 905 q 186 856 237 856 z "},"˚":{"ha":743,"x_min":214,"x_max":534,"o":"m 370 1157 q 406 1157 370 1157 q 488 1115 441 1157 q 534 1005 534 1073 q 488 896 534 938 q 371 854 442 854 q 256 896 299 854 q 214 1006 214 937 q 256 1116 214 1074 q 370 1157 298 1157 m 407 1041 q 399 1048 407 1041 q 371 1055 392 1055 q 336 1041 350 1055 q 321 1005 321 1027 q 334 969 321 983 q 370 955 347 955 q 407 969 392 955 q 421 1005 421 983 q 407 1041 421 1027 z "},"˛":{"ha":269,"x_min":-13,"x_max":271,"o":"m 271 -149 q 98 -292 271 -292 q 47 -286 75 -292 q 3 -274 19 -280 l -13 -268 l -13 -153 q 76 -173 37 -173 q 115 -140 115 -173 q 93 -106 115 -122 q 49 -84 71 -91 l 27 -77 q 67 1 66 1 l 168 1 l 162 -16 q 201 -32 180 -18 q 237 -60 223 -46 q 261 -97 251 -74 q 271 -149 271 -121 z "},"˜":{"ha":732,"x_min":115,"x_max":617,"o":"m 471 840 q 363 869 433 840 q 265 898 294 898 q 222 840 234 898 l 115 840 q 158 994 121 944 q 265 1044 195 1044 q 366 1015 296 1044 q 467 986 436 986 q 509 1044 497 986 l 617 1044 q 573 892 611 945 q 471 840 536 840 z "},"˝":{"ha":766,"x_min":81,"x_max":702,"o":"m 425 1064 l 425 1052 q 346 976 410 1029 q 201 869 281 924 l 81 869 l 81 886 l 110 926 q 204 1064 178 1018 l 425 1064 m 702 1064 l 702 1052 q 618 972 686 1025 q 477 869 551 919 l 357 869 l 357 886 l 386 926 q 480 1064 454 1017 l 702 1064 z "},"ְ":{"ha":0,"x_min":-63,"x_max":64,"o":"m -63 -127 q -63 -114 -63 -127 q -46 -84 -63 -100 q 0 -68 -29 -68 q 47 -84 30 -68 q 64 -127 64 -100 q 47 -170 64 -155 q 0 -186 30 -186 q -46 -170 -29 -186 q -63 -127 -63 -155 m -63 -291 q -63 -277 -63 -291 q -46 -248 -63 -264 q 0 -232 -29 -232 q 47 -248 30 -232 q 64 -291 64 -264 q 47 -333 64 -317 q 0 -349 30 -349 q -46 -334 -29 -349 q -63 -291 -63 -318 z "},"ֱ":{"ha":0,"x_min":-254,"x_max":254,"o":"m -237 -95 q -228 -87 -237 -95 q -191 -79 -220 -79 q -144 -95 -161 -79 q -127 -138 -127 -111 q -144 -180 -127 -165 q -191 -196 -161 -196 q -237 -180 -220 -196 q -254 -138 -254 -165 q -237 -95 -254 -111 m -53 -138 q -53 -124 -53 -138 q -36 -94 -53 -110 q 11 -79 -19 -79 q 58 -95 40 -79 q 75 -138 75 -111 q 58 -180 75 -165 q 10 -196 40 -196 q -36 -181 -20 -196 q -53 -138 -53 -165 m 127 -138 q 127 -124 127 -138 q 144 -95 127 -111 q 191 -79 161 -79 q 237 -95 220 -79 q 254 -138 254 -111 q 237 -180 254 -165 q 191 -196 220 -196 q 144 -180 161 -196 q 127 -138 127 -165 m -134 -258 q -125 -250 -134 -258 q -87 -242 -117 -242 q -41 -258 -58 -242 q -24 -301 -24 -274 q -41 -343 -24 -328 q -88 -359 -58 -359 q -134 -344 -117 -359 q -151 -301 -151 -328 q -134 -258 -151 -273 m 127 -301 q 127 -288 127 -301 q 144 -258 127 -274 q 191 -242 161 -242 q 237 -258 220 -242 q 254 -301 254 -274 q 237 -343 254 -328 q 191 -359 220 -359 q 144 -344 161 -359 q 127 -301 127 -328 z "},"ֲ":{"ha":0,"x_min":-216,"x_max":216,"o":"m 107 -94 q 116 -86 107 -94 q 153 -79 124 -79 q 199 -95 182 -79 q 216 -138 216 -111 q 199 -180 216 -165 q 153 -196 182 -196 q 107 -180 123 -196 q 90 -137 90 -165 q 107 -94 90 -110 m 33 -176 l -216 -176 l -216 -96 l 33 -96 l 33 -176 m 107 -258 q 116 -250 107 -258 q 153 -242 124 -242 q 199 -258 182 -242 q 216 -301 216 -274 q 199 -343 216 -328 q 153 -359 182 -359 q 107 -344 123 -359 q 90 -301 90 -328 q 107 -258 90 -273 z "},"ֳ":{"ha":0,"x_min":-218,"x_max":218,"o":"m 91 -138 q 91 -124 91 -138 q 108 -95 91 -111 q 154 -79 125 -79 q 201 -95 184 -79 q 218 -138 218 -111 q 201 -180 218 -165 q 154 -196 184 -196 q 108 -180 125 -196 q 91 -138 91 -165 m 31 -176 l -56 -176 l -56 -313 l -131 -313 l -131 -176 l -218 -176 l -218 -96 l 31 -96 l 31 -176 m 91 -301 q 91 -288 91 -301 q 108 -258 91 -274 q 154 -242 125 -242 q 201 -258 184 -242 q 218 -301 218 -274 q 201 -343 218 -328 q 154 -359 184 -359 q 108 -344 125 -359 q 91 -301 91 -328 z "},"ִ":{"ha":0,"x_min":-64,"x_max":64,"o":"m -64 -134 q -64 -120 -64 -134 q -47 -91 -64 -106 q 0 -75 -30 -75 q 47 -92 29 -75 q 64 -134 64 -108 q 47 -177 64 -161 q -1 -193 29 -193 q -47 -177 -31 -193 q -64 -134 -64 -162 z "},"ֵ":{"ha":0,"x_min":-164,"x_max":165,"o":"m -147 -78 q -139 -70 -147 -78 q -101 -62 -130 -62 q -55 -78 -72 -62 q -38 -121 -38 -94 q -55 -164 -38 -148 q -101 -180 -72 -180 q -148 -164 -131 -180 q -164 -121 -164 -149 q -147 -78 -164 -94 m 36 -121 q 36 -107 36 -121 q 53 -78 36 -94 q 100 -62 70 -62 q 147 -79 130 -62 q 165 -121 165 -95 q 147 -164 165 -148 q 100 -180 130 -180 q 53 -164 70 -180 q 36 -121 36 -149 z "},"ֶ":{"ha":0,"x_min":-164,"x_max":165,"o":"m -147 -94 q -139 -86 -147 -94 q -101 -79 -130 -79 q -55 -95 -72 -79 q -38 -138 -38 -111 q -55 -180 -38 -165 q -101 -196 -72 -196 q -148 -180 -131 -196 q -164 -137 -164 -165 q -147 -94 -164 -110 m 36 -138 q 36 -124 36 -138 q 53 -94 36 -110 q 100 -79 70 -79 q 147 -95 130 -79 q 165 -138 165 -111 q 147 -180 165 -165 q 100 -196 130 -196 q 53 -181 70 -196 q 36 -138 36 -165 m -62 -301 q -62 -288 -62 -301 q -45 -258 -62 -274 q 2 -242 -28 -242 q 48 -258 31 -242 q 65 -301 65 -274 q 48 -343 65 -328 q 2 -359 31 -359 q -45 -344 -28 -359 q -62 -301 -62 -328 z "},"ַ":{"ha":0,"x_min":-133,"x_max":134,"o":"m 134 -159 l -133 -159 l -133 -80 l 134 -80 l 134 -159 z "},"ָ":{"ha":0,"x_min":-130,"x_max":130,"o":"m 130 -173 l 37 -173 l 37 -310 l -38 -310 l -38 -173 l -130 -173 l -130 -94 l 130 -94 l 130 -173 z "},"ֹ":{"ha":0,"x_min":-64,"x_max":64,"o":"m -64 1015 q -64 1028 -64 1015 q -47 1058 -64 1042 q 0 1074 -30 1074 q 47 1057 29 1074 q 64 1015 64 1041 q 47 972 64 988 q -1 956 29 956 q -47 971 -31 956 q -64 1015 -64 987 z "},"ֺ":{"ha":0,"x_min":-64,"x_max":64,"o":"m -64 1015 q -64 1028 -64 1015 q -47 1058 -64 1042 q 0 1074 -30 1074 q 47 1057 29 1074 q 64 1015 64 1041 q 47 972 64 988 q -1 956 29 956 q -47 971 -31 956 q -64 1015 -64 987 z "},"ֻ":{"ha":0,"x_min":-188,"x_max":189,"o":"m -171 -102 q -162 -94 -171 -102 q -125 -86 -154 -86 q -79 -102 -96 -86 q -62 -145 -62 -118 q -79 -188 -62 -172 q -125 -203 -96 -203 q -171 -188 -155 -203 q -188 -145 -188 -172 q -171 -102 -188 -117 m -65 -264 q -65 -251 -65 -264 q -48 -221 -65 -237 q -2 -205 -31 -205 q 45 -221 28 -205 q 62 -264 62 -237 q 45 -307 62 -291 q -2 -323 28 -323 q -48 -307 -31 -323 q -65 -264 -65 -292 m 60 -383 q 60 -369 60 -383 q 77 -340 60 -355 q 124 -324 94 -324 q 171 -340 153 -324 q 189 -383 189 -357 q 171 -426 189 -410 q 123 -441 153 -441 q 77 -426 94 -441 q 60 -383 60 -411 z "},"ּ":{"ha":0,"x_min":-47,"x_max":48,"o":"m -35 492 q -29 498 -35 492 q 0 504 -22 504 q 35 492 22 504 q 48 459 48 479 q 35 428 48 439 q 0 416 22 416 q -35 428 -22 416 q -47 460 -47 439 q -35 492 -47 480 z "},"ֽ":{"ha":0,"x_min":-35,"x_max":35,"o":"m 35 -345 l -35 -345 l -35 -106 l 35 -106 l 35 -345 z "},"־":{"ha":448,"x_min":29,"x_max":418,"o":"m 418 692 l 29 692 l 29 875 l 418 875 l 418 692 z "},"ׁ":{"ha":0,"x_min":-64,"x_max":64,"o":"m -64 1015 q -64 1028 -64 1015 q -47 1058 -64 1042 q 0 1074 -30 1074 q 47 1057 29 1074 q 64 1015 64 1041 q 47 972 64 988 q -1 956 29 956 q -47 971 -31 956 q -64 1015 -64 987 z "},"ׂ":{"ha":0,"x_min":-64,"x_max":64,"o":"m -64 1015 q -64 1028 -64 1015 q -47 1058 -64 1042 q 0 1074 -30 1074 q 47 1057 29 1074 q 64 1015 64 1041 q 47 972 64 988 q -1 956 29 956 q -47 971 -31 956 q -64 1015 -64 987 z "},"ׇ":{"ha":0,"x_min":-139,"x_max":139,"o":"m 139 -142 l 30 -142 l 30 -301 l -33 -301 l -33 -142 l -139 -142 l -139 -75 l 139 -75 l 139 -142 z "},"א":{"ha":725,"x_min":34,"x_max":691,"o":"m 691 875 l 691 551 q 654 391 691 446 q 610 345 638 368 q 543 305 582 321 l 684 0 l 429 0 l 285 370 q 284 332 284 362 l 284 0 l 52 0 l 52 317 q 63 403 52 362 q 107 486 74 444 q 193 556 140 528 q 112 719 167 610 q 34 875 57 829 l 289 875 l 419 564 l 454 477 q 458 543 458 496 l 458 875 l 691 875 z "},"ב":{"ha":640,"x_min":41,"x_max":632,"o":"m 41 869 q 224 888 143 888 q 354 880 305 888 q 435 852 402 871 q 490 809 469 833 q 524 747 511 785 q 544 578 544 684 l 544 170 l 632 170 l 632 0 l 41 0 l 41 170 l 310 170 l 310 579 q 287 687 310 658 q 203 717 263 717 q 121 712 162 717 q 61 703 81 708 l 41 699 l 41 869 z "},"ג":{"ha":562,"x_min":19,"x_max":504,"o":"m 209 713 q 105 700 149 713 l 105 871 q 243 888 185 888 q 342 880 300 888 q 413 854 385 871 q 459 814 441 836 q 487 760 477 792 q 504 621 504 703 l 504 0 l 323 0 l 312 100 l 304 100 q 235 23 286 59 q 115 -13 184 -13 q 35 -3 79 -13 l 19 0 l 35 195 q 124 180 87 180 q 235 221 200 180 q 271 361 271 263 l 271 621 q 209 713 271 713 z "},"ד":{"ha":614,"x_min":18,"x_max":602,"o":"m 602 875 l 602 720 q 502 550 502 684 l 502 0 l 269 0 l 269 555 q 344 705 269 651 l 18 705 l 18 875 l 602 875 z "},"ה":{"ha":720,"x_min":62,"x_max":661,"o":"m 192 879 q 234 883 192 879 q 350 888 277 888 q 471 880 422 888 q 553 852 519 871 q 607 809 586 833 q 640 747 629 785 q 661 578 661 684 l 661 0 l 427 0 l 427 579 q 401 687 427 657 q 308 717 374 717 q 200 710 262 717 q 100 695 139 703 l 62 688 l 62 857 q 192 879 106 869 m 295 0 l 62 0 l 62 568 l 295 568 l 295 0 z "},"ו":{"ha":356,"x_min":62,"x_max":294,"o":"m 294 0 l 62 0 l 62 875 l 294 875 l 294 0 z "},"ז":{"ha":403,"x_min":47,"x_max":397,"o":"m 397 875 l 397 718 q 358 642 383 694 q 321 524 334 589 q 306 414 309 460 q 304 297 304 369 l 304 0 l 71 0 l 71 297 q 86 450 71 378 q 126 574 101 523 q 203 705 167 660 l 47 705 l 47 875 l 397 875 z "},"ח":{"ha":720,"x_min":62,"x_max":661,"o":"m 62 0 l 62 863 q 183 880 100 871 q 344 888 266 888 q 471 880 422 888 q 553 852 519 871 q 607 809 586 833 q 640 747 629 785 q 661 578 661 684 l 661 0 l 427 0 l 427 579 q 407 687 427 658 q 332 717 387 717 q 295 713 327 717 l 295 0 l 62 0 z "},"ט":{"ha":734,"x_min":58,"x_max":690,"o":"m 352 875 q 439 888 395 888 q 522 873 482 888 q 589 832 562 857 q 635 769 616 808 q 665 694 654 731 q 681 609 675 658 q 690 444 690 530 q 678 289 690 357 q 646 176 665 221 q 598 95 626 130 q 542 40 570 60 q 481 8 513 20 q 424 -9 449 -5 q 374 -13 399 -13 q 325 -9 350 -13 q 268 8 300 -5 q 208 40 236 20 q 152 95 180 60 q 103 176 123 130 q 71 289 83 221 q 58 438 58 357 l 58 875 l 295 875 l 295 438 q 374 159 295 159 q 454 438 454 159 q 441 662 454 616 q 407 712 431 704 q 378 717 395 717 l 352 711 l 352 875 z "},"י":{"ha":356,"x_min":62,"x_max":294,"o":"m 62 287 l 62 875 l 294 875 l 294 471 l 178 287 l 62 287 z "},"ך":{"ha":576,"x_min":22,"x_max":517,"o":"m 22 865 q 208 888 125 888 q 345 866 290 888 q 431 808 399 844 q 484 720 464 772 q 510 614 503 667 q 517 497 517 562 l 517 -324 l 285 -324 l 285 497 q 225 690 285 648 q 163 707 200 707 q 39 694 94 707 l 22 691 l 22 865 z "},"כ":{"ha":568,"x_min":30,"x_max":525,"o":"m 30 867 q 209 888 120 888 q 352 870 298 888 q 439 823 406 852 q 491 747 471 793 q 518 651 511 701 q 525 538 525 602 l 525 358 q 487 151 525 239 q 432 66 465 102 q 347 9 399 31 q 226 -13 294 -13 q 30 11 111 -13 l 30 190 q 191 166 109 166 q 278 243 262 166 q 288 358 288 284 l 288 538 q 262 666 288 623 q 180 709 237 709 q 47 697 102 709 l 30 694 l 30 867 z "},"ל":{"ha":575,"x_min":19,"x_max":562,"o":"m 252 875 l 562 875 l 562 743 l 450 336 l 384 0 l 157 0 l 224 342 l 324 705 l 19 705 l 19 1050 l 252 1050 l 252 875 z "},"ם":{"ha":720,"x_min":62,"x_max":661,"o":"m 62 0 l 62 865 q 186 880 95 872 q 350 888 277 888 q 471 880 422 888 q 553 852 519 871 q 607 809 586 833 q 640 747 629 785 q 661 578 661 684 l 661 0 l 62 0 m 427 170 l 427 579 q 409 687 427 658 q 342 717 391 717 q 295 711 332 717 l 295 170 l 427 170 z "},"מ":{"ha":772,"x_min":34,"x_max":713,"o":"m 479 888 q 666 788 614 888 q 703 679 692 739 q 713 541 713 620 l 713 0 l 363 0 l 363 170 l 481 170 l 481 541 q 473 663 481 639 q 445 707 461 699 q 417 712 433 712 q 383 703 400 712 q 355 682 366 694 q 317 628 331 657 l 270 0 l 37 0 l 85 564 q 87 616 87 591 q 34 875 87 732 l 248 875 q 273 787 262 844 l 277 787 q 479 888 381 888 z "},"ן":{"ha":345,"x_min":9,"x_max":286,"o":"m 286 554 l 286 -324 l 53 -324 l 53 554 q 42 721 53 641 q 20 838 31 802 l 9 875 l 243 875 q 255 835 248 861 q 274 725 262 809 q 286 554 286 642 z "},"נ":{"ha":510,"x_min":22,"x_max":456,"o":"m 61 873 q 195 888 144 888 q 285 882 247 888 q 351 863 323 875 q 397 832 378 852 q 428 793 416 813 q 445 743 439 772 q 456 621 456 695 l 456 255 q 446 130 456 193 q 427 33 437 66 l 418 0 l 22 0 l 22 170 l 213 170 q 222 307 222 220 l 222 621 q 205 686 222 659 q 148 713 188 713 q 76 701 121 713 l 61 698 l 61 873 z "},"ס":{"ha":713,"x_min":43,"x_max":669,"o":"m 357 888 q 452 872 410 888 q 522 836 494 856 q 578 782 550 817 q 625 701 606 747 q 669 438 669 598 q 578 95 669 210 q 522 40 550 60 q 463 7 494 20 q 357 -14 410 -14 q 248 8 302 -14 q 188 41 216 20 q 133 96 160 61 q 87 178 106 132 q 43 438 43 279 q 66 583 43 506 q 121 704 88 660 l 52 699 l 52 866 q 357 888 193 888 m 277 438 q 356 158 277 158 q 435 438 435 158 q 412 662 435 601 q 357 717 391 717 l 328 715 q 288 609 298 672 q 277 438 277 545 z "},"ע":{"ha":706,"x_min":22,"x_max":665,"o":"m 665 875 l 646 471 q 632 344 643 399 q 595 230 622 288 q 526 129 568 172 q 413 51 484 86 q 246 -3 342 16 l 29 -45 l 29 130 l 165 155 l 22 875 l 253 875 l 327 475 l 344 248 q 411 399 401 296 q 414 440 412 413 q 417 475 416 467 l 439 875 l 665 875 z "},"ף":{"ha":682,"x_min":14,"x_max":624,"o":"m 70 377 q 58 391 70 377 q 30 453 45 406 q 14 567 14 499 q 39 699 14 635 q 105 804 63 763 q 200 866 146 844 q 311 888 253 888 q 407 872 364 888 q 477 836 449 856 q 532 782 505 817 q 580 701 560 747 q 624 438 624 598 l 624 -324 l 391 -324 l 391 438 q 311 717 391 717 q 273 699 289 717 q 251 656 258 682 q 239 581 239 610 q 256 487 239 520 q 302 450 274 454 l 322 446 l 292 281 l 260 284 q 129 327 187 292 q 70 377 95 347 z "},"פ":{"ha":696,"x_min":43,"x_max":653,"o":"m 99 377 q 87 391 99 377 q 59 453 75 406 q 43 567 43 499 q 68 699 43 635 q 134 804 92 763 q 229 866 176 844 q 340 888 282 888 q 436 872 393 888 q 506 836 478 856 q 562 782 534 817 q 609 701 589 747 q 653 438 653 598 q 562 94 653 210 q 506 39 534 59 q 446 7 478 19 q 334 -14 393 -14 q 217 -8 275 -14 q 134 4 159 -2 l 109 10 l 109 178 q 340 158 220 158 q 400 225 381 158 q 419 438 419 293 q 396 662 419 601 q 340 717 375 717 q 302 699 318 717 q 280 656 287 682 q 268 581 268 610 q 286 487 268 520 q 331 450 303 454 l 351 446 l 321 281 l 290 284 q 157 327 216 292 q 99 377 124 347 z "},"ץ":{"ha":673,"x_min":0,"x_max":630,"o":"m 630 875 l 630 562 q 549 347 630 420 q 472 302 520 320 q 361 283 424 285 l 361 -324 l 128 -324 l 128 390 q 64 632 108 468 q 0 875 20 797 l 252 875 l 336 449 l 338 427 q 382 468 368 430 q 397 562 397 505 l 397 875 l 630 875 z "},"צ":{"ha":689,"x_min":16,"x_max":675,"o":"m 633 0 l 28 0 l 28 170 l 286 170 l 370 161 q 315 241 351 190 q 268 311 279 293 l 16 875 l 257 875 l 394 530 q 427 662 422 595 l 444 874 l 675 874 l 660 702 q 623 537 654 631 q 570 431 604 485 q 490 334 536 376 l 633 119 l 633 0 z "},"ק":{"ha":691,"x_min":62,"x_max":678,"o":"m 576 24 l 576 0 l 344 0 l 344 24 q 368 347 344 176 l 427 705 l 62 705 l 62 875 l 678 875 l 678 750 l 607 346 q 576 24 576 149 m 294 -325 l 62 -325 l 62 534 l 294 534 l 294 -325 z "},"ר":{"ha":585,"x_min":24,"x_max":527,"o":"m 24 879 q 221 891 142 891 q 355 878 301 891 q 443 840 410 864 q 495 776 477 817 q 520 691 514 736 q 527 581 527 646 l 527 0 l 294 0 l 294 582 q 269 687 294 654 q 184 720 243 720 q 47 713 120 720 l 24 711 l 24 879 z "},"ש":{"ha":869,"x_min":16,"x_max":846,"o":"m 319 0 l 72 0 l 16 875 l 247 875 l 269 435 q 274 439 269 435 q 280 443 279 442 q 285 448 281 444 q 290 453 289 452 q 294 459 291 455 q 299 468 298 464 q 302 478 300 472 q 306 491 304 484 q 308 507 307 498 q 310 526 309 515 l 324 875 l 549 875 l 534 526 q 450 345 525 402 q 280 289 389 299 l 290 170 l 319 170 q 440 192 387 170 q 526 250 494 213 q 595 426 590 322 l 622 875 l 846 875 l 823 412 q 802 293 821 348 q 761 201 783 237 q 700 126 739 164 q 611 61 661 88 q 485 17 560 34 q 319 0 410 0 z "},"ת":{"ha":748,"x_min":19,"x_max":690,"o":"m 100 861 q 115 864 100 861 q 216 878 130 867 q 377 888 303 888 q 499 880 451 888 q 581 852 548 871 q 636 809 614 833 q 669 747 657 785 q 690 578 690 684 l 690 0 l 456 0 l 456 579 q 435 687 456 658 q 360 717 415 717 l 352 717 l 352 254 q 338 100 352 138 q 293 30 319 49 q 199 -8 252 0 q 136 -13 168 -13 q 34 7 79 -13 l 19 14 l 19 174 q 79 163 64 163 q 101 170 93 163 q 113 193 110 177 q 118 254 118 215 l 118 694 l 55 682 l 55 850 q 100 861 71 854 z "},"׳":{"ha":319,"x_min":25,"x_max":305,"o":"m 297 878 l 305 862 q 244 653 269 725 q 208 551 219 581 l 197 519 l 25 519 q 69 749 60 679 q 82 849 79 820 l 85 878 l 297 878 z "},"״":{"ha":602,"x_min":25,"x_max":587,"o":"m 297 878 l 305 862 q 244 653 269 725 q 208 551 219 581 l 197 519 l 25 519 q 69 749 60 679 q 82 849 79 820 l 85 878 l 297 878 m 579 878 l 587 862 q 526 653 551 725 q 490 551 501 581 l 479 519 l 307 519 q 351 749 342 679 q 364 849 361 820 l 368 878 l 579 878 z "},"–":{"ha":646,"x_min":15,"x_max":621,"o":"m 621 291 l 15 291 l 15 463 l 621 463 l 621 291 z "},"—":{"ha":1057,"x_min":18,"x_max":1022,"o":"m 1022 291 l 18 291 l 18 463 l 1022 463 l 1022 291 z "},"‘":{"ha":306,"x_min":7,"x_max":288,"o":"m 116 991 l 288 991 q 243 762 253 832 q 231 662 234 691 l 227 633 l 16 633 l 7 649 q 69 858 44 786 q 104 960 94 930 l 116 991 z "},"’":{"ha":306,"x_min":18,"x_max":298,"o":"m 290 991 l 298 975 q 237 766 262 838 q 201 663 212 694 l 190 633 l 18 633 q 62 863 53 792 q 75 962 72 933 l 79 991 l 290 991 z "},"‚":{"ha":361,"x_min":-4,"x_max":308,"o":"m 290 186 l 308 156 q 185 -174 273 23 l -4 -174 q 69 186 45 24 l 290 186 z "},"“":{"ha":588,"x_min":7,"x_max":570,"o":"m 116 991 l 288 991 q 243 762 253 832 q 231 662 234 691 l 227 633 l 16 633 l 7 649 q 69 858 44 786 q 104 960 94 930 l 116 991 m 398 991 l 570 991 q 526 762 535 832 q 513 662 516 691 l 509 633 l 298 633 l 290 649 q 351 858 326 786 q 387 960 376 930 l 398 991 z "},"”":{"ha":588,"x_min":18,"x_max":581,"o":"m 290 991 l 298 975 q 237 766 262 838 q 201 663 212 694 l 190 633 l 18 633 q 62 863 53 792 q 75 962 72 933 l 79 991 l 290 991 m 572 991 l 581 975 q 519 766 544 838 q 483 663 494 694 l 472 633 l 300 633 q 345 863 335 792 q 357 962 354 933 l 361 991 l 572 991 z "},"„":{"ha":656,"x_min":28,"x_max":579,"o":"m 275 161 l 285 146 q 165 -179 249 7 l 28 -179 q 96 161 72 3 l 275 161 m 570 161 l 579 146 q 460 -179 543 7 l 322 -179 q 391 161 366 3 l 570 161 z "},"†":{"ha":681,"x_min":70,"x_max":611,"o":"m 387 772 l 611 793 l 611 637 l 387 659 l 424 0 l 243 0 l 281 659 l 70 637 l 70 793 l 281 772 l 243 1055 l 424 1055 l 387 772 z "},"‡":{"ha":681,"x_min":62,"x_max":618,"o":"m 393 800 l 618 821 l 618 665 l 393 686 l 425 533 l 393 370 l 618 390 l 618 235 l 393 256 l 431 0 l 250 0 l 288 256 l 62 235 l 62 390 l 288 370 l 256 533 l 288 686 l 62 665 l 62 821 l 288 800 l 250 1055 l 431 1055 l 393 800 z "},"•":{"ha":495,"x_min":33,"x_max":454,"o":"m 33 507 q 33 559 33 507 q 87 667 33 611 q 243 724 142 724 q 399 667 345 724 q 454 508 454 610 q 399 347 454 405 q 243 290 343 290 q 87 347 142 290 q 33 507 33 404 z "},"…":{"ha":1112,"x_min":68,"x_max":1043,"o":"m 97 175 q 111 190 97 175 q 180 204 125 204 q 264 175 235 204 q 293 93 293 146 q 263 11 293 40 q 180 -18 234 -18 q 97 11 126 -18 q 68 93 68 40 q 97 175 68 146 m 472 175 q 486 190 472 175 q 555 204 500 204 q 639 175 610 204 q 668 93 668 146 q 638 11 668 40 q 555 -18 609 -18 q 472 11 501 -18 q 444 93 444 40 q 472 175 444 146 m 847 175 q 861 190 847 175 q 930 204 876 204 q 1014 175 985 204 q 1043 93 1043 146 q 1014 11 1043 40 q 930 -18 984 -18 q 847 11 876 -18 q 819 93 819 40 q 847 175 819 146 z "},"‰":{"ha":1545,"x_min":16,"x_max":1529,"o":"m 16 692 q 16 769 16 692 q 72 926 16 846 q 235 1006 128 1006 q 398 926 342 1006 q 455 692 455 846 q 398 457 455 538 q 235 377 342 377 q 72 457 128 377 q 16 692 16 538 m 406 0 l 252 0 l 660 991 l 816 991 l 406 0 m 253 847 q 250 852 253 847 q 235 857 246 857 q 218 847 224 857 q 206 799 211 837 q 201 692 201 761 q 206 585 201 623 q 218 536 211 547 q 235 526 224 526 q 253 536 246 526 q 265 585 260 547 q 270 692 270 623 q 265 799 270 761 q 253 847 260 837 m 612 302 q 612 379 612 302 q 668 537 612 456 q 831 617 724 617 q 995 537 938 617 q 1051 302 1051 456 q 995 68 1051 149 q 831 -12 938 -12 q 668 68 724 -12 q 612 302 612 149 m 1090 302 q 1090 379 1090 302 q 1146 537 1090 456 q 1309 617 1202 617 q 1473 537 1416 617 q 1529 302 1529 456 q 1473 68 1529 149 q 1309 -12 1416 -12 q 1146 68 1202 -12 q 1090 302 1090 149 m 849 458 q 846 463 849 458 q 831 468 842 468 q 814 458 821 468 q 802 410 807 448 q 797 302 797 372 q 802 195 797 233 q 814 147 807 157 q 831 137 821 137 q 849 147 842 137 q 861 195 856 157 q 866 302 866 233 q 861 410 866 372 q 849 458 856 448 m 1327 458 q 1324 463 1327 458 q 1310 468 1320 468 q 1292 458 1299 468 q 1280 410 1285 448 q 1275 302 1275 372 q 1280 195 1275 233 q 1292 147 1285 157 q 1310 137 1299 137 q 1327 147 1320 137 q 1339 195 1334 157 q 1344 302 1344 233 q 1339 410 1344 372 q 1327 458 1334 448 z "},"‹":{"ha":429,"x_min":16,"x_max":410,"o":"m 262 381 l 410 149 l 237 52 l 16 372 l 16 389 l 237 710 l 410 614 l 262 381 z "},"›":{"ha":429,"x_min":14,"x_max":408,"o":"m 160 381 q 14 614 71 527 l 186 710 l 408 389 l 408 372 l 186 52 l 14 149 l 160 381 z "},"⁄":{"ha":123,"x_min":-288,"x_max":408,"o":"m -96 0 l -288 0 l 216 991 l 408 991 l -96 0 z "},"₪":{"ha":1077,"x_min":66,"x_max":1008,"o":"m 66 878 l 396 878 q 660 789 582 878 q 701 729 686 760 q 724 656 715 698 q 739 493 739 589 l 739 321 l 562 321 l 562 493 q 528 652 562 609 q 396 696 494 696 l 299 696 l 299 0 l 66 0 l 66 878 m 1008 878 l 1008 526 q 1007 427 1008 466 q 997 327 1005 387 q 972 226 988 267 q 925 139 956 186 q 851 65 895 93 q 740 19 807 37 q 587 0 673 0 l 351 0 l 351 560 l 515 560 l 515 182 l 587 182 q 742 252 702 182 q 765 302 757 277 q 777 366 773 327 q 784 526 784 425 l 784 878 l 1008 878 z "},"€":{"ha":629,"x_min":-4,"x_max":640,"o":"m -4 652 l 83 652 q 198 916 111 825 q 424 1006 286 1006 q 536 993 487 1006 q 640 949 586 980 l 568 777 q 432 821 474 821 q 319 652 349 821 l 511 652 l 511 512 l 307 512 l 307 460 l 481 460 l 481 321 l 321 321 q 441 173 353 173 q 624 245 503 173 l 624 45 q 422 -13 533 -13 q 198 73 284 -13 q 84 321 112 158 l -4 321 l -4 460 l 73 460 l 73 512 l -4 512 l -4 652 z "},"™":{"ha":913,"x_min":-22,"x_max":856,"o":"m 856 991 l 856 488 l 697 488 l 697 615 l 667 488 l 518 488 l 490 608 l 490 488 l 334 488 l 334 869 l 250 869 l 250 488 l 90 488 l 90 869 l -22 869 l -22 991 l 549 991 l 594 783 l 644 991 l 856 991 z "},"ﬁ":{"ha":738,"x_min":-12,"x_max":696,"o":"m 574 1039 q 664 1010 631 1039 q 696 931 696 981 q 663 852 696 881 q 573 823 629 823 q 484 852 517 823 q 450 931 450 880 l 451 943 l 417 846 q 332 876 357 876 q 303 795 303 876 l 303 755 l 423 755 l 423 589 l 303 589 l 303 0 l 72 0 l 72 589 l -12 589 l -12 694 l 72 747 l 72 798 q 130 989 72 928 q 313 1051 187 1051 q 475 1012 394 1051 l 469 994 q 574 1039 499 1039 m 458 755 l 689 755 l 689 0 l 458 0 l 458 755 z "},"ﬂ":{"ha":734,"x_min":-12,"x_max":688,"o":"m 688 1044 l 688 0 l 456 0 l 456 959 l 417 846 q 332 876 357 876 q 303 795 303 876 l 303 755 l 423 755 l 423 589 l 303 589 l 303 0 l 72 0 l 72 589 l -12 589 l -12 694 l 72 747 l 72 798 q 130 989 72 928 q 313 1051 187 1051 q 456 1020 385 1051 l 456 1044 l 688 1044 z "},"שׁ":{"ha":869,"x_min":16,"x_max":851,"o":"m 723 1015 q 723 1028 723 1015 q 740 1058 723 1042 q 786 1074 757 1074 q 833 1057 816 1074 q 851 1015 851 1041 q 833 972 851 988 q 786 956 816 956 q 740 971 756 956 q 723 1015 723 987 m 319 0 l 72 0 l 16 875 l 247 875 l 269 435 q 274 439 269 435 q 280 443 279 442 q 285 448 281 444 q 290 453 289 452 q 294 459 291 455 q 299 468 298 464 q 302 478 300 472 q 306 491 304 484 q 308 507 307 498 q 310 526 309 515 l 324 875 l 549 875 l 534 526 q 450 345 525 402 q 280 289 389 299 l 290 170 l 319 170 q 440 192 387 170 q 526 250 494 213 q 595 426 590 322 l 622 875 l 846 875 l 823 412 q 802 293 821 348 q 761 201 783 237 q 700 126 739 164 q 611 61 661 88 q 485 17 560 34 q 319 0 410 0 z "},"שׂ":{"ha":869,"x_min":4,"x_max":846,"o":"m 4 1015 q 4 1028 4 1015 q 21 1058 4 1042 q 67 1074 38 1074 q 115 1057 97 1074 q 132 1015 132 1041 q 115 972 132 988 q 67 956 97 956 q 21 971 37 956 q 4 1015 4 987 m 319 0 l 72 0 l 16 875 l 247 875 l 269 435 q 274 439 269 435 q 280 443 279 442 q 285 448 281 444 q 290 453 289 452 q 294 459 291 455 q 299 468 298 464 q 302 478 300 472 q 306 491 304 484 q 308 507 307 498 q 310 526 309 515 l 324 875 l 549 875 l 534 526 q 450 345 525 402 q 280 289 389 299 l 290 170 l 319 170 q 440 192 387 170 q 526 250 494 213 q 595 426 590 322 l 622 875 l 846 875 l 823 412 q 802 293 821 348 q 761 201 783 237 q 700 126 739 164 q 611 61 661 88 q 485 17 560 34 q 319 0 410 0 z "},"שּׁ":{"ha":869,"x_min":16,"x_max":851,"o":"m 723 1015 q 723 1028 723 1015 q 740 1058 723 1042 q 786 1074 757 1074 q 833 1057 816 1074 q 851 1015 851 1041 q 833 972 851 988 q 786 956 816 956 q 740 971 756 956 q 723 1015 723 987 m 319 0 l 72 0 l 16 875 l 247 875 l 269 435 q 274 439 269 435 q 280 443 279 442 q 285 448 281 444 q 290 453 289 452 q 294 459 291 455 q 299 468 298 464 q 302 478 300 472 q 306 491 304 484 q 308 507 307 498 q 310 526 309 515 l 324 875 l 549 875 l 534 526 q 450 345 525 402 q 280 289 389 299 l 290 170 l 319 170 q 440 192 387 170 q 526 250 494 213 q 595 426 590 322 l 622 875 l 846 875 l 823 412 q 802 293 821 348 q 761 201 783 237 q 700 126 739 164 q 611 61 661 88 q 485 17 560 34 q 319 0 410 0 m 400 292 q 406 298 400 292 q 435 304 412 304 q 470 292 457 304 q 483 259 483 279 q 470 228 483 239 q 435 216 457 216 q 400 228 412 216 q 387 260 387 239 q 400 292 387 280 z "},"שּׂ":{"ha":869,"x_min":4,"x_max":846,"o":"m 4 1015 q 4 1028 4 1015 q 21 1058 4 1042 q 67 1074 38 1074 q 115 1057 97 1074 q 132 1015 132 1041 q 115 972 132 988 q 67 956 97 956 q 21 971 37 956 q 4 1015 4 987 m 319 0 l 72 0 l 16 875 l 247 875 l 269 435 q 274 439 269 435 q 280 443 279 442 q 285 448 281 444 q 290 453 289 452 q 294 459 291 455 q 299 468 298 464 q 302 478 300 472 q 306 491 304 484 q 308 507 307 498 q 310 526 309 515 l 324 875 l 549 875 l 534 526 q 450 345 525 402 q 280 289 389 299 l 290 170 l 319 170 q 440 192 387 170 q 526 250 494 213 q 595 426 590 322 l 622 875 l 846 875 l 823 412 q 802 293 821 348 q 761 201 783 237 q 700 126 739 164 q 611 61 661 88 q 485 17 560 34 q 319 0 410 0 m 400 292 q 406 298 400 292 q 435 304 412 304 q 470 292 457 304 q 483 259 483 279 q 470 228 483 239 q 435 216 457 216 q 400 228 412 216 q 387 260 387 239 q 400 292 387 280 z "},"אַ":{"ha":725,"x_min":34,"x_max":691,"o":"m 691 875 l 691 551 q 654 391 691 446 q 610 345 638 368 q 543 305 582 321 l 684 0 l 429 0 l 285 370 q 284 332 284 362 l 284 0 l 52 0 l 52 317 q 63 403 52 362 q 107 486 74 444 q 193 556 140 528 q 112 719 167 610 q 34 875 57 829 l 289 875 l 419 564 l 454 477 q 458 543 458 496 l 458 875 l 691 875 m 496 -233 l 230 -233 l 230 -155 l 496 -155 l 496 -233 z "},"אָ":{"ha":725,"x_min":34,"x_max":691,"o":"m 691 875 l 691 551 q 654 391 691 446 q 610 345 638 368 q 543 305 582 321 l 684 0 l 429 0 l 285 370 q 284 332 284 362 l 284 0 l 52 0 l 52 317 q 63 403 52 362 q 107 486 74 444 q 193 556 140 528 q 112 719 167 610 q 34 875 57 829 l 289 875 l 419 564 l 454 477 q 458 543 458 496 l 458 875 l 691 875 m 492 -248 l 400 -248 l 400 -385 l 325 -385 l 325 -248 l 233 -248 l 233 -168 l 492 -168 l 492 -248 z "},"אּ":{"ha":725,"x_min":34,"x_max":691,"o":"m 691 875 l 691 551 q 654 391 691 446 q 610 345 638 368 q 543 305 582 321 l 684 0 l 429 0 l 285 370 q 284 332 284 362 l 284 0 l 52 0 l 52 317 q 63 403 52 362 q 107 486 74 444 q 193 556 140 528 q 112 719 167 610 q 34 875 57 829 l 289 875 l 419 564 l 454 477 q 458 543 458 496 l 458 875 l 691 875 m 306 99 q 312 105 306 99 q 341 111 319 111 q 376 98 363 111 q 389 66 389 86 q 376 34 389 46 q 341 22 363 22 q 306 34 319 22 q 294 66 294 46 q 306 99 294 87 z "},"בּ":{"ha":640,"x_min":41,"x_max":632,"o":"m 41 869 q 224 888 143 888 q 354 880 305 888 q 435 852 402 871 q 490 809 469 833 q 524 747 511 785 q 544 578 544 684 l 544 170 l 632 170 l 632 0 l 41 0 l 41 170 l 310 170 l 310 579 q 287 687 310 658 q 203 717 263 717 q 121 712 162 717 q 61 703 81 708 l 41 699 l 41 869 m 141 478 q 148 484 141 478 q 176 490 154 490 q 212 477 199 490 q 224 445 224 465 q 212 413 224 425 q 176 401 199 401 q 141 413 154 401 q 129 446 129 425 q 141 478 129 466 z "},"גּ":{"ha":562,"x_min":19,"x_max":504,"o":"m 209 713 q 105 700 149 713 l 105 871 q 243 888 185 888 q 342 880 300 888 q 413 854 385 871 q 459 814 441 836 q 487 760 477 792 q 504 621 504 703 l 504 0 l 323 0 l 312 100 l 304 100 q 235 23 286 59 q 115 -13 184 -13 q 35 -3 79 -13 l 19 0 l 35 195 q 124 180 87 180 q 235 221 200 180 q 271 361 271 263 l 271 621 q 209 713 271 713 m 110 478 q 116 484 110 478 q 144 490 122 490 q 180 477 167 490 q 193 445 193 465 q 180 413 193 425 q 144 401 167 401 q 110 413 122 401 q 97 446 97 425 q 110 478 97 466 z "},"דּ":{"ha":614,"x_min":18,"x_max":602,"o":"m 602 875 l 602 720 q 502 550 502 684 l 502 0 l 269 0 l 269 555 q 344 705 269 651 l 18 705 l 18 875 l 602 875 m 105 478 q 112 484 105 478 q 140 490 118 490 q 176 477 163 490 q 189 445 189 465 q 176 413 189 425 q 140 401 163 401 q 105 413 118 401 q 93 446 93 425 q 105 478 93 466 z "},"הּ":{"ha":720,"x_min":62,"x_max":661,"o":"m 192 879 q 234 883 192 879 q 350 888 277 888 q 471 880 422 888 q 553 852 519 871 q 607 809 586 833 q 640 747 629 785 q 661 578 661 684 l 661 0 l 427 0 l 427 579 q 401 687 427 657 q 308 717 374 717 q 200 710 262 717 q 100 695 139 703 l 62 688 l 62 857 q 192 879 106 869 m 62 0 l 62 568 l 295 568 l 295 0 l 62 0 m 325 478 q 331 484 325 478 q 360 490 338 490 q 395 477 382 490 q 408 445 408 465 q 395 413 408 425 q 360 401 382 401 q 325 413 338 401 q 313 446 313 425 q 325 478 313 466 z "},"וּ":{"ha":356,"x_min":-29,"x_max":294,"o":"m 62 0 l 62 875 l 294 875 l 294 0 l 62 0 m -20 468 q -16 473 -20 468 q 4 479 -12 479 q 29 468 20 479 q 38 439 38 457 q 29 410 38 420 q 4 399 20 399 q -20 410 -12 399 q -29 439 -29 420 q -20 468 -29 457 z "},"זּ":{"ha":403,"x_min":-37,"x_max":397,"o":"m 397 875 l 397 718 q 358 642 383 694 q 321 524 334 589 q 306 414 309 460 q 304 297 304 369 l 304 0 l 71 0 l 71 297 q 86 450 71 378 q 126 574 101 523 q 203 705 167 660 l 47 705 l 47 875 l 397 875 m -37 446 q -37 456 -37 446 q -27 478 -37 466 q 1 490 -17 490 q 30 477 19 490 q 40 445 40 465 q 30 413 40 425 q 1 401 19 401 q -27 413 -17 401 q -37 446 -37 425 z "},"טּ":{"ha":734,"x_min":58,"x_max":690,"o":"m 352 875 q 439 888 395 888 q 522 873 482 888 q 589 832 562 857 q 635 769 616 808 q 665 694 654 731 q 681 609 675 658 q 690 444 690 530 q 678 289 690 357 q 646 176 665 221 q 598 95 626 130 q 542 40 570 60 q 481 8 513 20 q 424 -9 449 -5 q 374 -13 399 -13 q 325 -9 350 -13 q 268 8 300 -5 q 208 40 236 20 q 152 95 180 60 q 103 176 123 130 q 71 289 83 221 q 58 438 58 357 l 58 875 l 295 875 l 295 438 q 374 159 295 159 q 454 438 454 159 q 441 662 454 616 q 407 712 431 704 q 378 717 395 717 l 352 711 l 352 875 m 332 478 q 338 484 332 478 q 367 490 345 490 q 402 477 389 490 q 415 445 415 465 q 402 413 415 425 q 367 401 389 401 q 332 413 345 401 q 319 446 319 425 q 332 478 319 466 z "},"יּ":{"ha":356,"x_min":-26,"x_max":294,"o":"m 62 287 l 62 875 l 294 875 l 294 471 l 178 287 l 62 287 m -18 609 q -13 614 -18 609 q 7 620 -9 620 q 32 609 22 620 q 41 580 41 598 q 32 551 41 562 q 7 541 22 541 q -18 551 -9 541 q -26 580 -26 562 q -18 609 -26 598 z "},"ךּ":{"ha":576,"x_min":22,"x_max":517,"o":"m 22 865 q 208 888 125 888 q 345 866 290 888 q 431 808 399 844 q 484 720 464 772 q 510 614 503 667 q 517 497 517 562 l 517 -324 l 285 -324 l 285 497 q 225 690 285 648 q 163 707 200 707 q 39 694 94 707 l 22 691 l 22 865 m 60 478 q 66 484 60 478 q 95 490 73 490 q 130 477 117 490 q 143 445 143 465 q 130 413 143 425 q 95 401 117 401 q 60 413 73 401 q 47 446 47 425 q 60 478 47 466 z "},"כּ":{"ha":568,"x_min":30,"x_max":525,"o":"m 30 867 q 209 888 120 888 q 352 870 298 888 q 439 823 406 852 q 491 747 471 793 q 518 651 511 701 q 525 538 525 602 l 525 358 q 487 151 525 239 q 432 66 465 102 q 347 9 399 31 q 226 -13 294 -13 q 30 11 111 -13 l 30 190 q 191 166 109 166 q 278 243 262 166 q 288 358 288 284 l 288 538 q 262 666 288 623 q 180 709 237 709 q 47 697 102 709 l 30 694 l 30 867 m 114 478 q 121 484 114 478 q 149 490 127 490 q 184 477 172 490 q 197 445 197 465 q 184 413 197 425 q 149 401 172 401 q 114 413 127 401 q 102 446 102 425 q 114 478 102 466 z "},"לּ":{"ha":575,"x_min":19,"x_max":562,"o":"m 562 875 l 562 743 l 450 336 l 384 0 l 157 0 l 224 342 l 324 705 l 19 705 l 19 1050 l 252 1050 l 252 875 l 562 875 m 78 478 q 85 484 78 478 q 113 490 91 490 q 149 477 136 490 q 161 445 161 465 q 149 413 161 425 q 113 401 136 401 q 78 413 91 401 q 66 446 66 425 q 78 478 66 466 z "},"מּ":{"ha":772,"x_min":34,"x_max":713,"o":"m 479 888 q 666 788 614 888 q 703 679 692 739 q 713 541 713 620 l 713 0 l 363 0 l 363 170 l 481 170 l 481 541 q 473 663 481 639 q 445 707 461 699 q 417 712 433 712 q 383 703 400 712 q 355 682 366 694 q 317 628 331 657 l 270 0 l 37 0 l 85 564 q 87 616 87 591 q 34 875 87 732 l 248 875 q 273 787 262 844 l 277 787 q 479 888 381 888 m 353 478 q 359 484 353 478 q 388 490 366 490 q 423 477 410 490 q 436 445 436 465 q 423 413 436 425 q 388 401 410 401 q 353 413 366 401 q 340 446 340 425 q 353 478 340 466 z "},"נּ":{"ha":510,"x_min":22,"x_max":456,"o":"m 61 873 q 195 888 144 888 q 285 882 247 888 q 351 863 323 875 q 397 832 378 852 q 428 793 416 813 q 445 743 439 772 q 456 621 456 695 l 456 255 q 446 130 456 193 q 427 33 437 66 l 418 0 l 22 0 l 22 170 l 213 170 q 222 307 222 220 l 222 621 q 205 686 222 659 q 148 713 188 713 q 76 701 121 713 l 61 698 l 61 873 m 82 478 q 89 484 82 478 q 117 490 95 490 q 153 477 140 490 q 165 445 165 465 q 153 413 165 425 q 117 401 140 401 q 82 413 95 401 q 70 446 70 425 q 82 478 70 466 z "},"סּ":{"ha":713,"x_min":43,"x_max":669,"o":"m 357 888 q 452 872 410 888 q 522 836 494 856 q 578 782 550 817 q 625 701 606 747 q 669 438 669 598 q 578 95 669 210 q 522 40 550 60 q 463 7 494 20 q 357 -14 410 -14 q 248 8 302 -14 q 188 41 216 20 q 133 96 160 61 q 87 178 106 132 q 43 438 43 279 q 66 583 43 506 q 121 704 88 660 l 52 699 l 52 866 q 357 888 193 888 m 277 438 q 356 158 277 158 q 435 438 435 158 q 412 662 435 601 q 357 717 391 717 l 328 715 q 288 609 298 672 q 277 438 277 545 m 322 478 q 328 484 322 478 q 357 490 334 490 q 392 477 379 490 q 405 445 405 465 q 392 413 405 425 q 357 401 379 401 q 322 413 334 401 q 309 446 309 425 q 322 478 309 466 z "},"ףּ":{"ha":682,"x_min":14,"x_max":624,"o":"m 70 377 q 58 391 70 377 q 30 453 45 406 q 14 567 14 499 q 39 699 14 635 q 105 804 63 763 q 200 866 146 844 q 311 888 253 888 q 407 872 364 888 q 477 836 449 856 q 532 782 505 817 q 580 701 560 747 q 624 438 624 598 l 624 -324 l 391 -324 l 391 438 q 311 717 391 717 q 273 699 289 717 q 251 656 258 682 q 239 581 239 610 q 256 487 239 520 q 302 450 274 454 l 322 446 l 292 281 l 260 284 q 129 327 187 292 q 70 377 95 347 m 287 628 q 293 634 287 628 q 322 640 300 640 q 357 627 345 640 q 370 595 370 615 q 357 563 370 575 q 322 551 345 551 q 287 563 300 551 q 275 595 275 575 q 287 628 275 616 z "},"פּ":{"ha":696,"x_min":43,"x_max":653,"o":"m 99 377 q 87 391 99 377 q 59 453 75 406 q 43 567 43 499 q 68 699 43 635 q 134 804 92 763 q 229 866 176 844 q 340 888 282 888 q 436 872 393 888 q 506 836 478 856 q 562 782 534 817 q 609 701 589 747 q 653 438 653 598 q 562 94 653 210 q 506 39 534 59 q 446 7 478 19 q 334 -14 393 -14 q 217 -8 275 -14 q 134 4 159 -2 l 109 10 l 109 178 q 340 158 220 158 q 400 225 381 158 q 419 438 419 293 q 396 662 419 601 q 340 717 375 717 q 302 699 318 717 q 280 656 287 682 q 268 581 268 610 q 286 487 268 520 q 331 450 303 454 l 351 446 l 321 281 l 290 284 q 157 327 216 292 q 99 377 124 347 m 308 628 q 314 634 308 628 q 342 640 320 640 q 378 627 365 640 q 391 595 391 615 q 378 563 391 575 q 342 551 365 551 q 308 563 320 551 q 295 595 295 575 q 308 628 295 616 z "},"צּ":{"ha":689,"x_min":16,"x_max":675,"o":"m 633 0 l 28 0 l 28 170 l 286 170 l 370 161 q 315 241 351 190 q 268 311 279 293 l 16 875 l 257 875 l 394 530 q 427 662 422 595 l 444 874 l 675 874 l 660 702 q 623 537 654 631 q 570 431 604 485 q 490 334 536 376 l 633 119 l 633 0 m 65 401 q 71 407 65 401 q 100 413 77 413 q 135 401 122 413 q 148 369 148 389 q 135 337 148 349 q 100 325 122 325 q 65 337 77 325 q 52 369 52 349 q 65 401 52 389 z "},"קּ":{"ha":691,"x_min":62,"x_max":678,"o":"m 576 24 l 576 0 l 344 0 l 344 24 q 368 347 344 176 l 427 705 l 62 705 l 62 875 l 678 875 l 678 750 l 607 346 q 576 24 576 149 m 305 605 q 311 611 305 605 q 340 617 317 617 q 375 605 362 617 q 388 573 388 593 q 375 541 388 553 q 340 529 362 529 q 305 541 317 529 q 292 573 292 553 q 305 605 292 593 m 62 -325 l 62 534 l 294 534 l 294 -325 l 62 -325 z "},"רּ":{"ha":585,"x_min":24,"x_max":527,"o":"m 24 879 q 221 891 142 891 q 355 878 301 891 q 443 840 410 864 q 495 776 477 817 q 520 691 514 736 q 527 581 527 646 l 527 0 l 294 0 l 294 582 q 269 687 294 654 q 184 720 243 720 q 47 713 120 720 l 24 711 l 24 879 m 128 478 q 134 484 128 478 q 163 490 140 490 q 198 477 185 490 q 211 445 211 465 q 198 413 211 425 q 163 401 185 401 q 128 413 140 401 q 115 446 115 425 q 128 478 115 466 z "},"שּ":{"ha":869,"x_min":16,"x_max":846,"o":"m 319 0 l 72 0 l 16 875 l 247 875 l 269 435 q 274 439 269 435 q 280 443 279 442 q 285 448 281 444 q 290 453 289 452 q 294 459 291 455 q 299 468 298 464 q 302 478 300 472 q 306 491 304 484 q 308 507 307 498 q 310 526 309 515 l 324 875 l 549 875 l 534 526 q 450 345 525 402 q 280 289 389 299 l 290 170 l 319 170 q 440 192 387 170 q 526 250 494 213 q 595 426 590 322 l 622 875 l 846 875 l 823 412 q 802 293 821 348 q 761 201 783 237 q 700 126 739 164 q 611 61 661 88 q 485 17 560 34 q 319 0 410 0 m 400 292 q 406 298 400 292 q 435 304 412 304 q 470 292 457 304 q 483 259 483 279 q 470 228 483 239 q 435 216 457 216 q 400 228 412 216 q 387 260 387 239 q 400 292 387 280 z "},"תּ":{"ha":748,"x_min":19,"x_max":690,"o":"m 100 861 q 115 864 100 861 q 216 878 130 867 q 377 888 303 888 q 499 880 451 888 q 581 852 548 871 q 636 809 614 833 q 669 747 657 785 q 690 578 690 684 l 690 0 l 456 0 l 456 579 q 435 687 456 658 q 360 717 415 717 l 352 717 l 352 254 q 338 100 352 138 q 293 30 319 49 q 199 -8 252 0 q 136 -13 168 -13 q 34 7 79 -13 l 19 14 l 19 174 q 79 163 64 163 q 101 170 93 163 q 113 193 110 177 q 118 254 118 215 l 118 694 l 55 682 l 55 850 q 100 861 71 854 m 369 478 q 375 484 369 478 q 404 490 381 490 q 439 477 426 490 q 452 445 452 465 q 439 413 452 425 q 404 401 426 401 q 369 413 381 401 q 356 446 356 425 q 369 478 356 466 z "},"וֹ":{"ha":356,"x_min":54,"x_max":294,"o":"m 54 1015 q 54 1028 54 1015 q 71 1058 54 1042 q 117 1074 87 1074 q 164 1057 146 1074 q 182 1015 182 1041 q 164 972 182 988 q 117 956 146 956 q 70 971 87 956 q 54 1015 54 987 m 62 0 l 62 875 l 294 875 l 294 0 l 62 0 z "}," ":{"ha":331,"x_min":0,"x_max":0,"o":""}}}
